<svg width="36" height="36" viewBox="0 0 36 36" fill="none" xmlns="http://www.w3.org/2000/svg">
<circle cx="18" cy="18" r="17.7" stroke="#ECECEC" stroke-width="0.6"/>
<rect x="11.6695" y="11.3551" width="13.7161" height="13.9965" rx="1.6" stroke="#ECECEC" stroke-width="0.8"/>
<path d="M21.2063 18.35C21.2063 19.8705 19.9995 21.0867 18.5309 21.0867C17.0623 21.0867 15.8555 19.8705 15.8555 18.35C15.8555 16.8295 17.0623 15.6133 18.5309 15.6133C19.9995 15.6133 21.2063 16.8295 21.2063 18.35Z" stroke="#ECECEC"/>
<path d="M22.6839 14.504C22.6839 14.724 22.5099 14.8958 22.3033 14.8958C22.0967 14.8958 21.9227 14.724 21.9227 14.504C21.9227 14.2839 22.0967 14.1121 22.3033 14.1121C22.5099 14.1121 22.6839 14.2839 22.6839 14.504Z" stroke="#ECECEC" stroke-width="0.4"/>
</svg>
