<svg width="34" height="35" viewBox="0 0 34 35" fill="none" xmlns="http://www.w3.org/2000/svg">
<path d="M33.7 17.0667C33.7 26.3278 26.222 33.8333 17 33.8333C7.77795 33.8333 0.3 26.3278 0.3 17.0667C0.3 7.80558 7.77795 0.3 17 0.3C26.222 0.3 33.7 7.80558 33.7 17.0667Z" stroke="#FAFAFA" stroke-width="0.6"/>
<path d="M16.5458 22.8879L20.3669 18.9236C20.4379 18.8534 20.593 18.6867 20.5996 18.6795L20.6027 18.6761C21.5629 17.6076 22.0917 16.2146 22.0917 14.7537C22.0917 11.5811 19.6039 9 16.5459 9C13.4879 9 11 11.5811 11 14.7537C11 16.2147 11.5288 17.6077 12.4889 18.6761L16.5458 22.8879ZM16.5459 9.55333C19.3097 9.55333 21.5584 11.8862 21.5584 14.7537C21.5584 16.0733 21.081 17.3316 20.2142 18.2971C20.1692 18.3455 20.0473 18.4755 19.997 18.525L16.5459 22.1052L12.876 18.2954C12.01 17.3301 11.5333 16.0726 11.5333 14.7537C11.5333 11.8862 13.7819 9.55333 16.5459 9.55333Z" fill="#FAFAFA"/>
<path d="M17.3995 10.9439C18.3565 10.9439 20.219 12.0296 20.219 14.0197C20.219 14.1725 20.3383 14.2963 20.4856 14.2963C20.6329 14.2963 20.7523 14.1725 20.7523 14.0197C20.7523 12.9838 20.311 12.0234 19.5098 11.3154C18.874 10.7536 18.0457 10.3906 17.3995 10.3906C17.2522 10.3906 17.1328 10.5145 17.1328 10.6673C17.1328 10.8201 17.2522 10.9439 17.3995 10.9439Z" fill="#FAFAFA"/>
<path d="M19.8915 21.1499C19.6837 21.0618 19.46 20.9833 19.2239 20.9141L18.7871 21.3673C20.0746 21.6861 20.8684 22.2543 20.8684 22.7824C20.8684 23.5721 19.0927 24.4522 16.5446 24.4522C13.9966 24.4522 12.2208 23.5721 12.2208 22.7824C12.2208 22.2544 13.0146 21.6861 14.3021 21.3673L13.8653 20.9141C13.6293 20.9833 13.4055 21.0618 13.1978 21.1499C12.2239 21.5629 11.6875 22.1426 11.6875 22.7824C11.6875 23.4221 12.2239 24.0018 13.1978 24.4148C14.0961 24.7957 15.2847 25.0055 16.5446 25.0055C17.8046 25.0055 18.9932 24.7957 19.8914 24.4148C20.8654 24.0018 21.4017 23.4221 21.4017 22.7824C21.4017 22.1426 20.8654 21.5629 19.8915 21.1499Z" fill="#FAFAFA"/>
<path d="M16.5578 17.4144C15.0763 17.4144 13.8711 16.164 13.8711 14.6271C13.8711 13.0902 15.0763 11.8398 16.5578 11.8398C18.0392 11.8398 19.2444 13.0902 19.2444 14.6271C19.2444 16.164 18.0392 17.4144 16.5578 17.4144ZM16.5578 12.3932C15.3704 12.3932 14.4044 13.3953 14.4044 14.6271C14.4044 15.8589 15.3704 16.861 16.5578 16.861C17.7451 16.861 18.7111 15.8589 18.7111 14.6271C18.7111 13.3953 17.7451 12.3932 16.5578 12.3932Z" fill="#FAFAFA"/>
</svg>
