<svg width="36" height="36" viewBox="0 0 36 36" fill="none" xmlns="http://www.w3.org/2000/svg">
<circle cx="18" cy="18" r="17.7" stroke="#ECECEC" stroke-width="0.6"/>
<path d="M14.9571 15.5684H12.4805V23.5689H14.9571V15.5684Z" fill="white"/>
<path d="M13.7066 14.5208C14.5154 14.5208 15.1709 13.8593 15.1709 13.0443C15.1709 12.2294 14.5154 11.5684 13.7066 11.5684C12.8977 11.5684 12.2422 12.2294 12.2422 13.0443C12.2422 13.8593 12.8972 14.5208 13.7066 14.5208Z" fill="white"/>
<path d="M18.9147 19.3691C18.9147 18.2444 19.4325 17.5743 20.4235 17.5743C21.3343 17.5743 21.7718 18.2176 21.7718 19.3691C21.7718 20.5217 21.7718 23.569 21.7718 23.569H24.2368C24.2368 23.569 24.2368 20.6463 24.2368 18.5032C24.2368 16.3602 23.0222 15.3242 21.3257 15.3242C19.6288 15.3242 18.9147 16.6463 18.9147 16.6463V15.5685H16.5391V23.569H18.9147C18.9147 23.569 18.9147 20.6019 18.9147 19.3691Z" fill="white"/>
</svg>
