<svg width="34" height="35" viewBox="0 0 34 35" fill="none" xmlns="http://www.w3.org/2000/svg">
<path d="M33.7 17.0667C33.7 26.3278 26.222 33.8333 17 33.8333C7.77795 33.8333 0.3 26.3278 0.3 17.0667C0.3 7.80558 7.77795 0.3 17 0.3C26.222 0.3 33.7 7.80558 33.7 17.0667Z" stroke="#FAFAFA" stroke-width="0.6"/>
<path d="M14.4875 16.6397H17.0048H19.5221M13.4087 22.1279H14.2372C15.5747 22.1279 16.8843 22.5111 18.0108 23.2321L19.4862 24.1764C19.5942 24.2457 19.7197 24.2855 19.8494 24.2915C19.979 24.2975 20.108 24.2695 20.2224 24.2106C20.3368 24.1516 20.4325 24.0639 20.4992 23.9567C20.5658 23.8495 20.601 23.7269 20.601 23.602V23.602C20.601 22.7879 21.2827 22.1653 22.0483 21.8883C23.3778 21.4072 24.1971 20.2345 24.1971 18.6675V14.5151C24.1971 12.4388 22.7587 11.0547 20.601 11.0547H13.4087C11.251 11.0547 9.8125 12.4388 9.8125 14.5151V18.6675C9.8125 20.7437 11.251 22.1279 13.4087 22.1279Z" stroke="#FAFAFA" stroke-width="0.7" stroke-miterlimit="10" stroke-linecap="round" stroke-linejoin="round"/>
<path d="M15.1875 17.0664H19.383" stroke="#FAFAFA" stroke-width="0.5" stroke-linecap="round"/>
</svg>
