<svg width="39" height="40" viewBox="0 0 39 40" fill="none" xmlns="http://www.w3.org/2000/svg">
<g clip-path="url(#clip0_1409_21045)">
<path opacity="0.28" d="M4.30061 7.23679C4.68389 7.23372 5.05768 7.1173 5.37488 6.9022C5.69208 6.6871 5.93849 6.38295 6.08305 6.02807C6.2276 5.6732 6.26385 5.28349 6.1872 4.90807C6.11055 4.53264 5.92445 4.1883 5.65234 3.91844C5.38023 3.64858 5.03429 3.46527 4.65814 3.39164C4.28199 3.31801 3.89245 3.35733 3.53862 3.50467C3.1848 3.652 2.8825 3.90074 2.66986 4.21954C2.45722 4.53834 2.34376 4.91293 2.34375 5.2961C2.3538 5.81033 2.56367 6.30047 2.92892 6.66271C3.29418 7.02494 3.78614 7.23084 4.30061 7.23679Z" fill="#F0F0F0"/>
<path opacity="0.42" d="M5.89589 32.1346C5.69313 32.3093 5.67968 32.5994 5.86454 32.7904L9.04366 36.0515C9.24304 36.2568 9.59254 36.263 9.80203 36.0658L11.4655 34.4966L7.81367 30.4785L5.89589 32.1346Z" fill="#EDEDED"/>
<path opacity="0.42" d="M32.8059 23.9724C32.2472 23.4807 31.3584 23.4777 30.7965 23.9651L23.1797 30.5641H17.464C16.8574 30.5641 16.3656 30.1207 16.3656 29.5738C16.3656 29.0269 16.8573 28.5836 17.464 28.5836H21.3722C22.1837 28.5836 22.9112 28.0648 23.0243 27.3404C23.162 26.4583 22.4037 25.6862 21.4336 25.6862H15.1867C14.1862 25.6862 13.2217 26.0328 12.4956 26.652L9.17188 29.4886L13.2448 33.9176H22.1808C23.3079 33.9176 24.3873 33.5118 25.1809 32.7904L32.8256 25.821C33.3891 25.307 33.3809 24.4776 32.8059 23.9724Z" fill="#EDEDED"/>
<path d="M19.2014 6.63457L19.408 6.26397C20.2065 4.83149 20.6058 4.11523 21.2027 4.11523C21.7996 4.11523 22.1989 4.83147 22.9974 6.26397L23.2041 6.63458C23.4309 7.04163 23.5444 7.24516 23.7213 7.37945C23.8982 7.51375 24.1186 7.5636 24.5592 7.6633L24.9603 7.75407C26.511 8.10492 27.2863 8.28035 27.4708 8.87357C27.6553 9.46667 27.1267 10.0847 26.0696 11.321L25.796 11.6408C25.4957 11.992 25.3455 12.1677 25.2779 12.385C25.2103 12.6023 25.233 12.8367 25.2784 13.3053L25.3198 13.732C25.4797 15.3813 25.5595 16.2061 25.0766 16.5726C24.5936 16.9392 23.8678 16.605 22.4159 15.9365L22.0403 15.7635C21.6276 15.5736 21.4213 15.4785 21.2027 15.4785C20.9841 15.4785 20.7778 15.5736 20.3651 15.7635L19.9895 15.9365C18.5377 16.605 17.8118 16.9392 17.3288 16.5726C16.8459 16.2061 16.9258 15.3813 17.0856 13.732L17.127 13.3053C17.1724 12.8367 17.1951 12.6023 17.1275 12.385C17.06 12.1677 16.9098 11.992 16.6094 11.6408L16.3359 11.321C15.2787 10.0847 14.7502 9.46667 14.9346 8.87357C15.1191 8.28035 15.8944 8.10491 17.4451 7.75407L17.8462 7.6633C18.2869 7.5636 18.5072 7.51375 18.6842 7.37945C18.8611 7.24516 18.9745 7.04164 19.2014 6.63457Z" fill="#F5F5F5"/>
<path opacity="0.28" d="M36.2361 13.0586C36.0368 13.0601 35.8424 13.1206 35.6774 13.2324C35.5124 13.3442 35.3842 13.5024 35.309 13.6869C35.2338 13.8714 35.2149 14.0741 35.2547 14.2693C35.2945 14.4646 35.3913 14.6437 35.5328 14.784C35.6743 14.9244 35.8542 15.0197 36.0498 15.0581C36.2454 15.0964 36.4479 15.0759 36.632 14.9993C36.816 14.9227 36.9732 14.7934 37.0838 14.6276C37.1943 14.4618 37.2534 14.267 37.2534 14.0678C37.2334 13.8054 37.1197 13.559 36.9328 13.3737C36.746 13.1884 36.4987 13.0765 36.2361 13.0586Z" fill="#F0F0F0"/>
<path opacity="0.28" d="M36.4645 34.4071C36.8547 34.4071 37.1711 34.0943 37.1711 33.7084C37.1711 33.3226 36.8547 33.0098 36.4645 33.0098C36.0742 33.0098 35.7578 33.3226 35.7578 33.7084C35.7578 34.0943 36.0742 34.4071 36.4645 34.4071Z" fill="#F0F0F0"/>
<path opacity="0.28" d="M34.0348 18.4161C34.1727 18.4176 34.307 18.4599 34.4209 18.5376C34.5348 18.6152 34.6232 18.7249 34.6749 18.8527C34.7266 18.9805 34.7393 19.1207 34.7115 19.2557C34.6837 19.3907 34.6165 19.5145 34.5184 19.6114C34.4204 19.7083 34.2959 19.7741 34.1605 19.8004C34.0252 19.8268 33.885 19.8125 33.7578 19.7594C33.6305 19.7063 33.5218 19.6168 33.4454 19.502C33.3689 19.3873 33.3281 19.2525 33.3281 19.1147C33.3281 19.0223 33.3465 18.9308 33.3821 18.8455C33.4177 18.7603 33.4698 18.6829 33.5356 18.6179C33.6013 18.5529 33.6792 18.5016 33.7649 18.467C33.8506 18.4323 33.9423 18.415 34.0348 18.4161Z" fill="#F0F0F0"/>
<path opacity="0.28" d="M37.402 7.23832C37.5398 7.23986 37.6742 7.28214 37.7881 7.35983C37.902 7.43752 37.9904 7.54717 38.0421 7.67496C38.0938 7.80274 38.1065 7.94296 38.0787 8.07797C38.0508 8.21298 37.9837 8.33675 37.8856 8.43368C37.7876 8.53061 37.6631 8.59638 37.5277 8.62271C37.3923 8.64905 37.2522 8.63477 37.125 8.58167C36.9977 8.52857 36.889 8.43903 36.8126 8.32431C36.7361 8.20959 36.6953 8.07483 36.6953 7.93698C36.6953 7.84458 36.7136 7.75309 36.7492 7.66781C36.7849 7.58254 36.837 7.50518 36.9027 7.4402C36.9685 7.37522 37.0464 7.32392 37.1321 7.28927C37.2178 7.25462 37.3095 7.2373 37.402 7.23832Z" fill="#F0F0F0"/>
<path opacity="0.28" d="M34.3395 4.31248e-05C34.4773 0.00157476 34.6117 0.0438499 34.7256 0.121544C34.8395 0.199237 34.9279 0.30888 34.9796 0.436669C35.0313 0.564458 35.044 0.704681 35.0162 0.839691C34.9883 0.9747 34.9212 1.09846 34.8231 1.19539C34.7251 1.29232 34.6006 1.3581 34.4652 1.38443C34.3299 1.41077 34.1897 1.39648 34.0625 1.34338C33.9352 1.29028 33.8265 1.20074 33.7501 1.08602C33.6736 0.971302 33.6328 0.836541 33.6328 0.698693C33.6328 0.606288 33.6511 0.5148 33.6867 0.429527C33.7223 0.344253 33.7745 0.266884 33.8402 0.201906C33.906 0.136928 33.9839 0.0856332 34.0696 0.0509827C34.1553 0.0163323 34.247 -0.000983595 34.3395 4.31248e-05Z" fill="#F0F0F0"/>
<path opacity="0.28" d="M11.4488 0.0176212C11.5867 0.0191529 11.7211 0.0614281 11.835 0.139122C11.9489 0.216815 12.0372 0.326459 12.0889 0.454247C12.1407 0.582036 12.1534 0.72226 12.1256 0.857269C12.0977 0.992278 12.0306 1.11604 11.9325 1.21297C11.8345 1.3099 11.7099 1.37568 11.5746 1.40201C11.4392 1.42834 11.2991 1.41406 11.1719 1.36096C11.0446 1.30786 10.9359 1.21832 10.8594 1.1036C10.783 0.98888 10.7422 0.854119 10.7422 0.716271C10.7422 0.623867 10.7605 0.532379 10.7961 0.447105C10.8317 0.361831 10.8839 0.284462 10.9496 0.219484C11.0153 0.154506 11.0933 0.103211 11.179 0.0685608C11.2647 0.0339104 11.3564 0.0165945 11.4488 0.0176212Z" fill="#F0F0F0"/>
<path opacity="0.28" d="M7.527 13.6016C7.66523 13.6016 7.80036 13.6425 7.91529 13.7193C8.03022 13.7961 8.1198 13.9052 8.1727 14.0328C8.2256 14.1605 8.23943 14.301 8.21246 14.4365C8.1855 14.572 8.11894 14.6965 8.0212 14.7942C7.92346 14.8919 7.79893 14.9585 7.66336 14.9854C7.52779 15.0124 7.38725 14.9986 7.25955 14.9457C7.13184 14.8928 7.0227 14.8032 6.9459 14.6884C6.86911 14.5735 6.82812 14.4384 6.82812 14.3002C6.82812 14.1149 6.90176 13.9372 7.03283 13.8062C7.16389 13.6752 7.34165 13.6016 7.527 13.6016Z" fill="#F0F0F0"/>
<path opacity="0.28" d="M27.5973 37.8223C27.7352 37.8238 27.8695 37.8661 27.9834 37.9438C28.0973 38.0215 28.1857 38.1311 28.2374 38.2589C28.2891 38.3867 28.3018 38.5269 28.274 38.662C28.2462 38.797 28.179 38.9207 28.0809 39.0177C27.9829 39.1146 27.8584 39.1804 27.723 39.2067C27.5877 39.233 27.4475 39.2187 27.3203 39.1656C27.193 39.1125 27.0843 39.023 27.0079 38.9083C26.9314 38.7936 26.8906 38.6588 26.8906 38.521C26.8906 38.4285 26.909 38.3371 26.9446 38.2518C26.9802 38.1665 27.0323 38.0891 27.0981 38.0242C27.1638 37.9592 27.2418 37.9079 27.3274 37.8732C27.4131 37.8386 27.5048 37.8213 27.5973 37.8223Z" fill="#F0F0F0"/>
<path opacity="0.28" d="M0.706649 23.3067C0.844534 23.3082 0.978879 23.3505 1.09278 23.4282C1.20669 23.5059 1.29507 23.6155 1.34678 23.7433C1.39849 23.8711 1.41123 24.0113 1.38339 24.1463C1.35555 24.2813 1.28837 24.4051 1.19032 24.502C1.09228 24.599 0.967744 24.6647 0.83239 24.6911C0.697037 24.7174 0.55692 24.7031 0.429668 24.65C0.302416 24.5969 0.193737 24.5074 0.117281 24.3927C0.040825 24.2779 8.51352e-06 24.1432 1.33133e-09 24.0053C-5.70474e-06 23.9129 0.0183299 23.8214 0.0539365 23.7362C0.0895432 23.6509 0.14173 23.5735 0.207452 23.5085C0.273174 23.4436 0.351134 23.3923 0.436824 23.3576C0.522515 23.323 0.614219 23.3057 0.706649 23.3067Z" fill="#F0F0F0"/>
</g>
<defs>
<clipPath id="clip0_1409_21045">
<rect width="38.0965" height="39.22" fill="white"/>
</clipPath>
</defs>
</svg>
