<svg width="36" height="37" viewBox="0 0 36 37" fill="none" xmlns="http://www.w3.org/2000/svg">
<g clip-path="url(#clip0_1409_21050)">
<path opacity="0.28" d="M4.05717 6.82764C4.41879 6.82474 4.77145 6.71491 5.07072 6.51199C5.36999 6.30906 5.60246 6.02213 5.73885 5.68734C5.87523 5.35255 5.90943 4.98491 5.83711 4.63073C5.76479 4.27655 5.58921 3.9517 5.33249 3.69712C5.07576 3.44253 4.74938 3.2696 4.39449 3.20014C4.0396 3.13068 3.67209 3.16778 3.33826 3.30677C3.00444 3.44576 2.71923 3.68042 2.51861 3.98117C2.31799 4.28193 2.21095 4.63532 2.21094 4.9968C2.22042 5.48192 2.41842 5.94432 2.76303 6.28605C3.10764 6.62778 3.57178 6.82202 4.05717 6.82764Z" fill="#F0F0F0"/>
<path d="M20.1319 11.3068C19.9283 11.3068 19.8774 11.4077 19.8774 11.5086C19.8741 11.536 19.8769 11.5638 19.8857 11.59C19.8945 11.6161 19.9091 11.6401 19.9283 11.66C19.9792 11.7105 20.0301 11.7105 20.1319 11.7609V11.3068Z" fill="#F5F5F5"/>
<path d="M14.4273 15.3943C15.8512 15.3027 17.2731 15.5994 18.5391 16.2522C19.4816 16.6517 20.4961 16.8576 21.5211 16.8576C22.5462 16.8576 23.5606 16.6517 24.5031 16.2522L25.7855 15.6971C26.1857 15.1747 26.402 14.5365 26.4013 13.8804C26.4013 12.316 25.2715 8.73315 23.2157 6.81554C24.5031 6.76508 26.1977 6.56323 26.9661 5.60443C26.9935 5.57158 27.014 5.5336 27.0263 5.49275C27.0386 5.45191 27.0425 5.40902 27.0378 5.36665C27.033 5.32428 27.0197 5.28329 26.9987 5.24611C26.9776 5.20894 26.9492 5.17634 26.9152 5.15026C26.8469 5.0964 26.7599 5.07148 26.6732 5.08093C26.5865 5.09038 26.507 5.13344 26.4522 5.20072C25.7346 6.0586 23.8314 6.20999 22.7017 6.20999C23.6071 5.53627 24.374 4.69694 24.9611 3.73729C24.9874 3.70617 25.0058 3.66933 25.015 3.62979C25.0242 3.59025 25.0238 3.54912 25.0138 3.50975C25.0039 3.47039 24.9847 3.43392 24.9579 3.4033C24.9311 3.37268 24.8973 3.34879 24.8594 3.33358C24.8268 3.30952 24.7893 3.2929 24.7495 3.28493C24.7097 3.27696 24.6686 3.27783 24.6292 3.28748C24.5898 3.29713 24.553 3.31532 24.5216 3.34074C24.4901 3.36617 24.4647 3.39819 24.4472 3.43451C23.8436 4.46037 22.9985 5.32608 21.9842 5.95767C21.439 5.69349 20.8404 5.55545 20.2336 5.55396C19.5795 5.55614 18.933 5.69364 18.3355 5.95767C15.557 7.16879 14.066 12.1142 14.066 13.8804C14.0393 14.4088 14.1646 14.9338 14.4273 15.3943ZM20.1828 9.33871C20.7453 9.34369 21.2937 9.51365 21.759 9.82718C22.2243 10.1407 22.5856 10.5838 22.7973 11.1006C23.0091 11.6174 23.062 12.1848 22.9491 12.7313C22.8363 13.2778 22.5629 13.7789 22.1634 14.1716C21.7639 14.5643 21.2561 14.831 20.704 14.938C20.1519 15.045 19.5802 14.9876 19.061 14.773C18.5417 14.5584 18.0982 14.1962 17.7861 13.732C17.4741 13.2678 17.3076 12.7225 17.3076 12.1646C17.3089 11.7918 17.3844 11.4228 17.5297 11.0789C17.6749 10.735 17.8872 10.4229 18.1542 10.1604C18.4213 9.89795 18.7379 9.69026 19.086 9.54926C19.4341 9.40826 19.8068 9.33671 20.1828 9.33871Z" fill="#F5F5F5"/>
<path d="M20.1829 14.385C20.6249 14.381 21.0558 14.2474 21.4213 14.001C21.7868 13.7547 22.0706 13.4065 22.237 13.0005C22.4034 12.5944 22.4448 12.1486 22.3561 11.7192C22.2674 11.2899 22.0526 10.8961 21.7387 10.5876C21.4247 10.2791 21.0257 10.0696 20.592 9.98557C20.1582 9.90152 19.709 9.94665 19.3011 10.1153C18.8931 10.2839 18.5446 10.5685 18.2995 10.9332C18.0544 11.2979 17.9235 11.7264 17.9235 12.1646C17.9404 12.7517 18.1845 13.3098 18.6052 13.7232C19.0258 14.1366 19.5908 14.3736 20.1829 14.385ZM19.6181 12.2656C19.4638 12.1876 19.3376 12.0642 19.2568 11.9123C19.1985 11.6938 19.2183 11.462 19.3128 11.2563C19.3851 11.0983 19.4997 10.9631 19.6442 10.8652C19.7886 10.7673 19.9574 10.7106 20.132 10.7012V10.2975H20.3916V10.7012C20.551 10.7057 20.7081 10.7399 20.8547 10.8021C20.9998 10.8489 21.137 10.9169 21.2618 11.004L20.9564 11.5591C20.767 11.4377 20.5565 11.3521 20.3356 11.3068V11.8619C20.5108 11.8918 20.6816 11.9426 20.8445 12.0133C21.0393 12.0917 21.2011 12.2342 21.3025 12.417C21.3554 12.5273 21.3829 12.648 21.3829 12.7702C21.3829 12.8924 21.3554 13.0131 21.3025 13.1234C21.2129 13.2705 21.0845 13.3906 20.9311 13.4706C20.7778 13.5507 20.6053 13.5877 20.4323 13.5776V14.0318H20.071V13.5776C19.7097 13.5352 19.3623 13.4146 19.0532 13.2244L19.3636 12.6693C19.5939 12.8256 19.8564 12.929 20.132 12.9721V12.4674C20.0303 12.417 19.8267 12.3665 19.6181 12.2656Z" fill="#F5F5F5"/>
<path d="M20.1829 4.84747C20.8393 4.84368 21.4887 4.98143 22.0861 5.25118L22.9614 1.9206C22.2852 1.87689 21.6097 2.01644 21.0073 2.32431C19.9285 2.82894 18.6919 2.22338 17.9235 1.71875L18.6919 5.04932C19.1809 4.93267 19.6804 4.86505 20.1829 4.84747Z" fill="#F5F5F5"/>
<path d="M20.646 12.7702C20.646 12.7197 20.5951 12.6693 20.5442 12.6188C20.4933 12.5683 20.3915 12.5683 20.3355 12.5179V12.9721C20.5442 12.9721 20.646 12.8711 20.646 12.7702Z" fill="#F5F5F5"/>
<path opacity="0.42" d="M5.55863 30.3162C5.36734 30.481 5.35465 30.7547 5.52906 30.935L8.52845 34.0114C8.71657 34.2051 9.04631 34.2109 9.24396 34.0249L10.8134 32.5445L7.368 28.7539L5.55863 30.3162Z" fill="#EDEDED"/>
<path opacity="0.42" d="M30.9464 22.6155C30.4193 22.1516 29.5808 22.1488 29.0506 22.6085L21.8644 28.834H16.4718C15.8995 28.834 15.4355 28.4158 15.4355 27.8998C15.4355 27.3839 15.8994 26.9656 16.4718 26.9656H20.1591C20.9246 26.9656 21.6111 26.4762 21.7178 25.7928C21.8477 24.9607 21.1323 24.2323 20.217 24.2323H14.3233C13.3793 24.2323 12.4693 24.5593 11.7842 25.1434L8.64844 27.8195L12.4911 31.9978H20.922C21.9854 31.9978 23.0038 31.6149 23.7524 30.9343L30.965 24.3595C31.4967 23.8746 31.4889 23.092 30.9464 22.6155Z" fill="#EDEDED"/>
<path opacity="0.28" d="M34.1873 12.3203C33.9992 12.3218 33.8158 12.3788 33.6602 12.4843C33.5045 12.5898 33.3836 12.739 33.3126 12.9131C33.2416 13.0872 33.2238 13.2783 33.2614 13.4625C33.299 13.6467 33.3903 13.8157 33.5237 13.9481C33.6572 14.0805 33.8269 14.1705 34.0115 14.2066C34.196 14.2427 34.3872 14.2235 34.5608 14.1512C34.7344 14.0789 34.8827 13.9569 34.987 13.8005C35.0914 13.6441 35.147 13.4603 35.147 13.2724C35.1282 13.0249 35.0209 12.7924 34.8446 12.6176C34.6684 12.4427 34.435 12.3372 34.1873 12.3203Z" fill="#F0F0F0"/>
<path opacity="0.28" d="M34.4089 32.4588C34.7771 32.4588 35.0756 32.1637 35.0756 31.7997C35.0756 31.4357 34.7771 31.1406 34.4089 31.1406C34.0407 31.1406 33.7422 31.4357 33.7422 31.7997C33.7422 32.1637 34.0407 32.4588 34.4089 32.4588Z" fill="#F0F0F0"/>
<path opacity="0.28" d="M32.112 17.3731C32.2421 17.3745 32.3689 17.4144 32.4763 17.4877C32.5838 17.561 32.6671 17.6644 32.7159 17.785C32.7647 17.9055 32.7767 18.0378 32.7505 18.1652C32.7242 18.2926 32.6608 18.4093 32.5683 18.5008C32.4758 18.5922 32.3583 18.6543 32.2306 18.6791C32.1029 18.704 31.9707 18.6905 31.8507 18.6404C31.7306 18.5903 31.6281 18.5058 31.5559 18.3976C31.4838 18.2894 31.4453 18.1622 31.4453 18.0322C31.4453 17.945 31.4626 17.8587 31.4962 17.7783C31.5298 17.6978 31.579 17.6248 31.641 17.5635C31.703 17.5022 31.7766 17.4538 31.8574 17.4211C31.9383 17.3884 32.0248 17.3721 32.112 17.3731Z" fill="#F0F0F0"/>
<path opacity="0.28" d="M35.2917 6.82817C35.4218 6.82961 35.5485 6.8695 35.656 6.94279C35.7635 7.01609 35.8468 7.11953 35.8956 7.24008C35.9444 7.36064 35.9564 7.49292 35.9302 7.62029C35.9039 7.74765 35.8405 7.86441 35.748 7.95586C35.6555 8.0473 35.538 8.10935 35.4103 8.13419C35.2826 8.15904 35.1504 8.14557 35.0304 8.09547C34.9103 8.04538 34.8078 7.96091 34.7356 7.85268C34.6635 7.74446 34.625 7.61732 34.625 7.48727C34.625 7.4001 34.6423 7.31379 34.6759 7.23334C34.7095 7.1529 34.7587 7.07991 34.8207 7.01861C34.8827 6.95731 34.9563 6.90892 35.0371 6.87623C35.118 6.84354 35.2045 6.8272 35.2917 6.82817Z" fill="#F0F0F0"/>
<path opacity="0.28" d="M32.4011 4.06837e-05C32.5312 0.00148562 32.6579 0.0413679 32.7654 0.114664C32.8728 0.18796 32.9562 0.291397 33.005 0.411952C33.0538 0.532507 33.0658 0.664794 33.0395 0.792161C33.0133 0.919528 32.9499 1.03628 32.8574 1.12773C32.7649 1.21917 32.6474 1.28122 32.5197 1.30607C32.392 1.33091 32.2598 1.31744 32.1398 1.26734C32.0197 1.21725 31.9171 1.13277 31.845 1.02455C31.7729 0.916323 31.7344 0.789189 31.7344 0.659145C31.7344 0.57197 31.7516 0.485661 31.7852 0.405214C31.8188 0.324767 31.8681 0.251778 31.9301 0.190478C31.9921 0.129178 32.0656 0.080786 32.1465 0.0480969C32.2273 0.0154078 32.3139 -0.00092792 32.4011 4.06837e-05Z" fill="#F0F0F0"/>
<path opacity="0.28" d="M10.7995 0.0156657C10.9296 0.0171106 11.0564 0.0569929 11.1638 0.130289C11.2713 0.203585 11.3546 0.307022 11.4034 0.427577C11.4522 0.548132 11.4642 0.680419 11.438 0.807786C11.4117 0.935153 11.3483 1.05191 11.2558 1.14335C11.1633 1.2348 11.0458 1.29685 10.9181 1.32169C10.7904 1.34654 10.6582 1.33306 10.5382 1.28297C10.4181 1.23287 10.3156 1.1484 10.2434 1.04017C10.1713 0.931948 10.1328 0.804814 10.1328 0.67477C10.1328 0.587595 10.1501 0.501286 10.1837 0.420839C10.2173 0.340392 10.2665 0.267403 10.3285 0.206103C10.3905 0.144803 10.4641 0.096411 10.5449 0.0637219C10.6258 0.0310328 10.7123 0.0146971 10.7995 0.0156657Z" fill="#F0F0F0"/>
<path opacity="0.28" d="M7.09687 12.832C7.22728 12.832 7.35478 12.8707 7.46321 12.9431C7.57164 13.0155 7.65616 13.1185 7.70606 13.2389C7.75597 13.3593 7.76902 13.4919 7.74358 13.6197C7.71814 13.7476 7.65534 13.865 7.56313 13.9572C7.47091 14.0494 7.35342 14.1121 7.22552 14.1376C7.09761 14.163 6.96502 14.1499 6.84453 14.1001C6.72405 14.0502 6.62107 13.9657 6.54862 13.8573C6.47617 13.7489 6.4375 13.6215 6.4375 13.4911C6.4375 13.3163 6.50697 13.1487 6.63063 13.0251C6.75429 12.9015 6.92199 12.832 7.09687 12.832Z" fill="#F0F0F0"/>
<path opacity="0.28" d="M26.0417 35.6817C26.1718 35.6831 26.2985 35.723 26.406 35.7963C26.5135 35.8696 26.5969 35.973 26.6456 36.0936C26.6944 36.2141 26.7064 36.3464 26.6802 36.4738C26.6539 36.6012 26.5905 36.7179 26.498 36.8094C26.4055 36.9008 26.288 36.9629 26.1603 36.9877C26.0326 37.0126 25.9004 36.9991 25.7804 36.949C25.6603 36.8989 25.5578 36.8144 25.4856 36.7062C25.4135 36.598 25.375 36.4708 25.375 36.3408C25.375 36.2536 25.3923 36.1673 25.4259 36.0868C25.4595 36.0064 25.5087 35.9334 25.5707 35.8721C25.6327 35.8108 25.7063 35.7624 25.7871 35.7297C25.868 35.697 25.9545 35.6807 26.0417 35.6817Z" fill="#F0F0F0"/>
<path opacity="0.28" d="M0.666702 21.9864C0.796791 21.9878 0.923542 22.0277 1.03101 22.101C1.13847 22.1743 1.22186 22.2777 1.27064 22.3983C1.31943 22.5188 1.33145 22.6511 1.30519 22.7785C1.27892 22.9058 1.21553 23.0226 1.12303 23.1141C1.03053 23.2055 0.913036 23.2675 0.785335 23.2924C0.657633 23.3172 0.525436 23.3038 0.405378 23.2537C0.28532 23.2036 0.182785 23.1191 0.110651 23.0109C0.0385171 22.9027 8.03224e-06 22.7755 1.25607e-09 22.6455C-5.38224e-06 22.5583 0.0172937 22.472 0.0508874 22.3915C0.0844812 22.3111 0.133718 22.2381 0.195724 22.1768C0.257731 22.1155 0.331284 22.0671 0.41213 22.0344C0.492977 22.0017 0.579497 21.9854 0.666702 21.9864Z" fill="#F0F0F0"/>
</g>
<defs>
<clipPath id="clip0_1409_21050">
<rect width="35.9429" height="37" fill="white"/>
</clipPath>
</defs>
</svg>
