<svg width="46" height="47" viewBox="0 0 46 47" fill="none" xmlns="http://www.w3.org/2000/svg">
<g clip-path="url(#clip0_1409_21065)">
<path opacity="0.28" d="M5.19876 8.67273C5.66156 8.66906 6.1129 8.52954 6.49591 8.27178C6.87892 8.01401 7.17644 7.64952 7.35099 7.22425C7.52554 6.79898 7.5693 6.33197 7.47675 5.88207C7.3842 5.43217 7.15948 5.01952 6.83092 4.69613C6.50236 4.37274 6.08466 4.15307 5.63047 4.06483C5.17628 3.97659 4.70593 4.02372 4.2787 4.20028C3.85147 4.37683 3.48645 4.67492 3.2297 5.05696C2.97295 5.439 2.83595 5.88789 2.83594 6.34707C2.84808 6.96331 3.10148 7.55068 3.54251 7.98477C3.98354 8.41887 4.57756 8.6656 5.19876 8.67273Z" fill="#F0F0F0"/>
<path opacity="0.42" d="M7.11689 38.508C6.87208 38.7174 6.85584 39.065 7.07905 39.294L10.9177 43.2019C11.1584 43.448 11.5805 43.4553 11.8334 43.219L13.842 41.3385L9.43255 36.5234L7.11689 38.508Z" fill="#EDEDED"/>
<path opacity="0.42" d="M39.6074 28.7276C38.9329 28.1383 37.8597 28.1348 37.1812 28.7188L27.9842 36.6268H21.0827C20.3503 36.6268 19.7565 36.0955 19.7565 35.4402C19.7565 34.7848 20.3502 34.2535 21.0827 34.2535H25.8017C26.7815 34.2535 27.66 33.6318 27.7965 32.7637C27.9628 31.7066 27.0472 30.7814 25.8758 30.7814H18.333C17.1249 30.7814 15.9603 31.1968 15.0835 31.9388L11.0703 35.3381L15.9882 40.6457H26.7781C28.139 40.6457 29.4424 40.1593 30.4006 39.2948L39.6312 30.943C40.3117 30.327 40.3017 29.333 39.6074 28.7276Z" fill="#EDEDED"/>
<path opacity="0.28" d="M43.7486 15.6504C43.5079 15.6522 43.2732 15.7247 43.074 15.8587C42.8748 15.9927 42.72 16.1822 42.6292 16.4033C42.5384 16.6245 42.5155 16.8673 42.5636 17.1013C42.6117 17.3353 42.7286 17.5499 42.8994 17.7181C43.0702 17.8863 43.2874 18.0006 43.5236 18.0465C43.7598 18.0924 44.0044 18.0679 44.2266 17.9761C44.4488 17.8843 44.6386 17.7293 44.7721 17.5306C44.9056 17.332 44.9769 17.0985 44.9769 16.8597C44.9529 16.5453 44.8155 16.2501 44.5899 16.028C44.3643 15.8059 44.0657 15.6718 43.7486 15.6504Z" fill="#F0F0F0"/>
<path opacity="0.28" d="M44.0329 41.2331C44.5042 41.2331 44.8862 40.8582 44.8862 40.3958C44.8862 39.9334 44.5042 39.5586 44.0329 39.5586C43.5617 39.5586 43.1797 39.9334 43.1797 40.3958C43.1797 40.8582 43.5617 41.2331 44.0329 41.2331Z" fill="#F0F0F0"/>
<path opacity="0.28" d="M41.0954 22.0684C41.2619 22.0702 41.4241 22.1209 41.5617 22.214C41.6992 22.3071 41.8059 22.4385 41.8683 22.5916C41.9308 22.7448 41.9462 22.9128 41.9125 23.0746C41.8789 23.2364 41.7978 23.3847 41.6795 23.5009C41.5611 23.617 41.4107 23.6959 41.2473 23.7274C41.0838 23.759 40.9146 23.7419 40.761 23.6782C40.6073 23.6146 40.4761 23.5073 40.3838 23.3698C40.2915 23.2323 40.2422 23.0708 40.2422 22.9056C40.2422 22.7949 40.2643 22.6853 40.3073 22.5831C40.3503 22.4809 40.4133 22.3882 40.4926 22.3103C40.572 22.2324 40.6661 22.171 40.7696 22.1294C40.8731 22.0879 40.9838 22.0672 41.0954 22.0684Z" fill="#F0F0F0"/>
<path opacity="0.28" d="M45.1658 8.67388C45.3322 8.67572 45.4945 8.72638 45.632 8.81949C45.7695 8.91259 45.8762 9.04399 45.9387 9.19713C46.0011 9.35026 46.0165 9.5183 45.9829 9.68009C45.9493 9.84188 45.8682 9.99019 45.7498 10.1064C45.6314 10.2225 45.481 10.3013 45.3176 10.3329C45.1541 10.3644 44.985 10.3473 44.8313 10.2837C44.6777 10.2201 44.5464 10.1128 44.4541 9.97529C44.3618 9.83782 44.3125 9.67632 44.3125 9.51113C44.3125 9.40039 44.3346 9.29076 44.3776 9.18857C44.4206 9.08638 44.4836 8.99367 44.563 8.9158C44.6423 8.83793 44.7365 8.77646 44.8399 8.73493C44.9434 8.69341 45.0541 8.67265 45.1658 8.67388Z" fill="#F0F0F0"/>
<path opacity="0.28" d="M41.4626 5.16793e-05C41.6291 0.00188714 41.7913 0.0525484 41.9289 0.145654C42.0664 0.23876 42.1731 0.370152 42.2355 0.52329C42.298 0.676428 42.3133 0.844468 42.2797 1.00626C42.2461 1.16805 42.165 1.31636 42.0466 1.43252C41.9283 1.54868 41.7779 1.6275 41.6145 1.65906C41.451 1.69062 41.2818 1.6735 41.1282 1.60987C40.9745 1.54623 40.8433 1.43893 40.751 1.30145C40.6586 1.16398 40.6094 1.00248 40.6094 0.837292C40.6094 0.726557 40.6315 0.616921 40.6745 0.514731C40.7175 0.412541 40.7805 0.319826 40.8598 0.241958C40.9392 0.16409 41.0333 0.10262 41.1368 0.0610961C41.2403 0.0195721 41.351 -0.00117871 41.4626 5.16793e-05Z" fill="#F0F0F0"/>
<path opacity="0.28" d="M13.822 0.0215361C13.9885 0.0233715 14.1507 0.0740327 14.2882 0.167138C14.4258 0.260244 14.5325 0.391637 14.5949 0.544775C14.6573 0.697913 14.6727 0.865952 14.6391 1.02774C14.6055 1.18953 14.5244 1.33784 14.406 1.454C14.2876 1.57016 14.1373 1.64899 13.9738 1.68054C13.8104 1.7121 13.6412 1.69499 13.4876 1.63135C13.3339 1.56772 13.2027 1.46041 13.1103 1.32294C13.018 1.18546 12.9688 1.02397 12.9688 0.858776C12.9687 0.748041 12.9909 0.638405 13.0339 0.536215C13.0769 0.434026 13.1399 0.34131 13.2192 0.263442C13.2986 0.185575 13.3927 0.124104 13.4962 0.0825804C13.5996 0.0410565 13.7104 0.0203057 13.822 0.0215361Z" fill="#F0F0F0"/>
<path opacity="0.28" d="M9.08605 16.3008C9.25295 16.3008 9.41612 16.3499 9.5549 16.4419C9.69367 16.5339 9.80184 16.6646 9.86571 16.8176C9.92958 16.9706 9.94628 17.1389 9.91372 17.3014C9.88116 17.4638 9.80079 17.6129 9.68278 17.73C9.56476 17.8471 9.41439 17.9269 9.2507 17.9592C9.087 17.9915 8.91731 17.9749 8.76311 17.9115C8.60891 17.8482 8.47713 17.7408 8.3844 17.6032C8.29168 17.4655 8.24219 17.3036 8.24219 17.138C8.24219 16.916 8.3311 16.703 8.48936 16.546C8.64761 16.389 8.86224 16.3008 9.08605 16.3008Z" fill="#F0F0F0"/>
<path opacity="0.28" d="M33.322 45.3262C33.4885 45.3281 33.6507 45.3787 33.7882 45.4718C33.9258 45.5649 34.0325 45.6963 34.0949 45.8495C34.1574 46.0026 34.1727 46.1706 34.1391 46.3324C34.1055 46.4942 34.0244 46.6425 33.906 46.7587C33.7876 46.8748 33.6373 46.9537 33.4738 46.9852C33.3104 47.0168 33.1412 46.9997 32.9876 46.936C32.8339 46.8724 32.7027 46.7651 32.6103 46.6276C32.518 46.4901 32.4688 46.3286 32.4688 46.1635C32.4687 46.0527 32.4909 45.9431 32.5339 45.8409C32.5769 45.7387 32.6399 45.646 32.7192 45.5681C32.7986 45.4903 32.8927 45.4288 32.9962 45.3873C33.0997 45.3457 33.2104 45.325 33.322 45.3262Z" fill="#F0F0F0"/>
<path opacity="0.28" d="M0.853251 27.9297C1.01974 27.9316 1.18196 27.9822 1.31949 28.0753C1.45703 28.1684 1.56375 28.2998 1.62618 28.453C1.68862 28.6061 1.704 28.7741 1.67039 28.9359C1.63678 29.0977 1.55565 29.246 1.43727 29.3622C1.31889 29.4784 1.16851 29.5572 1.00508 29.5887C0.841644 29.6203 0.672458 29.6032 0.518806 29.5395C0.365155 29.4759 0.23393 29.3686 0.141612 29.2311C0.0492945 29.0937 1.02797e-05 28.9322 1.60753e-09 28.767C-6.88824e-06 28.6562 0.0221326 28.5466 0.0651262 28.4444C0.10812 28.3422 0.171133 28.2495 0.25049 28.1716C0.329846 28.0938 0.42398 28.0323 0.527448 27.9908C0.630916 27.9493 0.741645 27.9285 0.853251 27.9297Z" fill="#F0F0F0"/>
</g>
<defs>
<clipPath id="clip0_1409_21065">
<rect width="46" height="47" fill="white"/>
</clipPath>
</defs>
</svg>
