<svg width="38" height="39" viewBox="0 0 38 39" fill="none" xmlns="http://www.w3.org/2000/svg">
<g clip-path="url(#clip0_1409_21054)">
<path opacity="0.28" d="M4.29572 7.19748C4.67805 7.19443 5.05091 7.07866 5.36732 6.86476C5.68373 6.65087 5.92952 6.34842 6.07371 5.99553C6.21791 5.64264 6.25407 5.25512 6.17761 4.88179C6.10115 4.50847 5.91551 4.16605 5.64408 3.89771C5.37265 3.62936 5.02757 3.44708 4.65236 3.37386C4.27715 3.30064 3.88859 3.33975 3.53564 3.48625C3.1827 3.63276 2.88115 3.88011 2.66904 4.19712C2.45694 4.51414 2.34376 4.88663 2.34375 5.26765C2.35378 5.77901 2.56312 6.2664 2.92746 6.62661C3.29181 6.98682 3.78254 7.19156 4.29572 7.19748Z" fill="#F0F0F0"/>
<path opacity="0.42" d="M5.87986 31.9534C5.67761 32.1272 5.6642 32.4157 5.84859 32.6056L9.01977 35.8484C9.21866 36.0526 9.56728 36.0587 9.77626 35.8626L11.4356 34.3022L7.79286 30.3066L5.87986 31.9534Z" fill="#EDEDED"/>
<path opacity="0.42" d="M32.7234 23.8375C32.1662 23.3485 31.2796 23.3456 30.7191 23.8302L23.1213 30.3923H17.4198C16.8148 30.3923 16.3242 29.9514 16.3242 29.4076C16.3242 28.8637 16.8147 28.4229 17.4198 28.4229H21.3183C22.1277 28.4229 22.8535 27.907 22.9663 27.1866C23.1036 26.3095 22.3472 25.5417 21.3795 25.5417H15.1483C14.1502 25.5417 13.1882 25.8864 12.4638 26.5021L9.14844 29.3229L13.2112 33.7271H22.1249C23.2492 33.7271 24.3259 33.3235 25.1175 32.6061L32.7431 25.6758C33.3052 25.1647 33.297 24.3398 32.7234 23.8375Z" fill="#EDEDED"/>
<path fill-rule="evenodd" clip-rule="evenodd" d="M20.5012 14.5999C23.6255 13.2427 25.56 10.3612 26.3975 5.81587C24.5155 5.25083 22.5224 4.97808 20.5195 5.01147H20.4829C18.4801 4.97807 16.487 5.25081 14.605 5.81587C15.4426 10.3612 17.3769 13.2429 20.5012 14.5999ZM27.8817 4.52657C25.546 3.7223 23.0326 3.32703 20.5013 3.36589C17.97 3.32704 15.4566 3.72232 13.121 4.52657C12.9186 4.59598 12.7496 4.71828 12.6399 4.8746C12.5303 5.03091 12.4863 5.21257 12.5145 5.39155C12.9318 8.049 13.7146 10.2823 14.8413 12.025C16.1211 14.0048 17.8847 15.4318 20.0834 16.2637C20.2145 16.3133 20.357 16.339 20.5013 16.339C20.6455 16.339 20.7881 16.3133 20.9191 16.2637C23.1177 15.4318 24.8818 14.0048 26.1613 12.025C27.288 10.2822 28.071 8.049 28.4884 5.39155C28.5166 5.21255 28.4725 5.03088 28.3628 4.87457C28.2531 4.71826 28.0841 4.59597 27.8817 4.52657Z" fill="#F5F5F5"/>
<path opacity="0.28" d="M36.1477 12.9863C35.9488 12.9879 35.7549 13.048 35.5904 13.1592C35.4258 13.2704 35.2979 13.4276 35.2229 13.6111C35.1479 13.7946 35.129 13.9962 35.1687 14.1903C35.2085 14.3845 35.305 14.5625 35.4461 14.7021C35.5872 14.8417 35.7667 14.9365 35.9618 14.9746C36.1569 15.0127 36.359 14.9924 36.5425 14.9162C36.7261 14.84 36.8829 14.7114 36.9932 14.5465C37.1035 14.3817 37.1624 14.188 37.1624 13.9898C37.1425 13.729 37.029 13.4839 36.8427 13.2997C36.6563 13.1154 36.4096 13.0041 36.1477 12.9863Z" fill="#F0F0F0"/>
<path opacity="0.28" d="M36.3768 34.2156C36.766 34.2156 37.0816 33.9046 37.0816 33.5209C37.0816 33.1372 36.766 32.8262 36.3768 32.8262C35.9875 32.8262 35.6719 33.1372 35.6719 33.5209C35.6719 33.9046 35.9875 34.2156 36.3768 34.2156Z" fill="#F0F0F0"/>
<path opacity="0.28" d="M33.9549 18.3125C34.0924 18.3141 34.2264 18.3561 34.3401 18.4334C34.4537 18.5106 34.5418 18.6196 34.5934 18.7467C34.645 18.8738 34.6577 19.0132 34.6299 19.1475C34.6021 19.2817 34.5352 19.4048 34.4374 19.5012C34.3396 19.5976 34.2153 19.663 34.0803 19.6892C33.9453 19.7154 33.8055 19.7012 33.6786 19.6484C33.5517 19.5956 33.4432 19.5065 33.367 19.3924C33.2907 19.2784 33.25 19.1444 33.25 19.0073C33.25 18.9154 33.2683 18.8244 33.3038 18.7396C33.3393 18.6548 33.3914 18.5779 33.4569 18.5133C33.5225 18.4487 33.6002 18.3976 33.6857 18.3632C33.7712 18.3287 33.8627 18.3115 33.9549 18.3125Z" fill="#F0F0F0"/>
<path opacity="0.28" d="M37.3143 7.19731C37.4518 7.19883 37.5858 7.24088 37.6994 7.31813C37.813 7.39539 37.9012 7.50442 37.9528 7.6315C38.0043 7.75857 38.0171 7.898 37.9893 8.03225C37.9615 8.16651 37.8945 8.28958 37.7967 8.38597C37.6989 8.48236 37.5747 8.54776 37.4397 8.57395C37.3047 8.60013 37.1649 8.58593 37.038 8.53313C36.911 8.48033 36.8026 8.39129 36.7263 8.27722C36.6501 8.16314 36.6094 8.02913 36.6094 7.89205C36.6094 7.80017 36.6277 7.70919 36.6632 7.62439C36.6987 7.5396 36.7507 7.46267 36.8163 7.39805C36.8818 7.33344 36.9596 7.28243 37.0451 7.24797C37.1306 7.21351 37.2221 7.19629 37.3143 7.19731Z" fill="#F0F0F0"/>
<path opacity="0.28" d="M34.2596 4.28833e-05C34.3971 0.00156594 34.5311 0.0436044 34.6447 0.120863C34.7584 0.198122 34.8465 0.307151 34.8981 0.434224C34.9497 0.561297 34.9624 0.700736 34.9346 0.834989C34.9068 0.969243 34.8398 1.09231 34.742 1.1887C34.6442 1.28509 34.52 1.35049 34.385 1.37668C34.25 1.40287 34.1102 1.38866 33.9833 1.33586C33.8563 1.28306 33.7479 1.19402 33.6717 1.07994C33.5954 0.965864 33.5547 0.831857 33.5547 0.694781C33.5547 0.602894 33.5729 0.511918 33.6085 0.427122C33.644 0.342325 33.696 0.26539 33.7616 0.200776C33.8272 0.136162 33.9049 0.0851537 33.9904 0.0506973C34.0759 0.0162408 34.1674 -0.000978088 34.2596 4.28833e-05Z" fill="#F0F0F0"/>
<path opacity="0.28" d="M11.4158 0.017621C11.5534 0.0191441 11.6874 0.0611825 11.801 0.138441C11.9146 0.2157 12.0028 0.324729 12.0543 0.451802C12.1059 0.578875 12.1186 0.718314 12.0909 0.852567C12.0631 0.986821 11.9961 1.10989 11.8983 1.20628C11.8005 1.30267 11.6763 1.36807 11.5413 1.39426C11.4062 1.42045 11.2665 1.40624 11.1395 1.35344C11.0126 1.30064 10.9042 1.21159 10.8279 1.09752C10.7516 0.983442 10.7109 0.849435 10.7109 0.712359C10.7109 0.620472 10.7292 0.529496 10.7647 0.4447C10.8003 0.359903 10.8523 0.282968 10.9178 0.218354C10.9834 0.15374 11.0612 0.102732 11.1466 0.0682754C11.2321 0.033819 11.3236 0.0166 11.4158 0.017621Z" fill="#F0F0F0"/>
<path opacity="0.28" d="M7.50963 13.5273C7.64751 13.5273 7.78231 13.5681 7.89695 13.6444C8.0116 13.7208 8.10095 13.8293 8.15372 13.9562C8.20648 14.0832 8.22028 14.2228 8.19338 14.3576C8.16649 14.4924 8.10009 14.6162 8.0026 14.7133C7.9051 14.8105 7.78088 14.8767 7.64565 14.9035C7.51042 14.9303 7.37023 14.9165 7.24284 14.8639C7.11546 14.8114 7.00659 14.7223 6.92998 14.6081C6.85338 14.4938 6.8125 14.3595 6.8125 14.2221C6.8125 14.0378 6.88595 13.8611 7.01669 13.7308C7.14743 13.6005 7.32474 13.5273 7.50963 13.5273Z" fill="#F0F0F0"/>
<path opacity="0.28" d="M27.533 37.6114C27.6706 37.6129 27.8046 37.6549 27.9182 37.7322C28.0318 37.8094 28.12 37.9185 28.1715 38.0455C28.2231 38.1726 28.2358 38.3121 28.208 38.4463C28.1803 38.5806 28.1133 38.7036 28.0155 38.8C27.9177 38.8964 27.7935 38.9618 27.6584 38.988C27.5234 39.0142 27.3837 39 27.2567 38.9472C27.1298 38.8944 27.0214 38.8053 26.9451 38.6913C26.8688 38.5772 26.8281 38.4432 26.8281 38.3061C26.8281 38.2142 26.8464 38.1232 26.8819 38.0384C26.9174 37.9536 26.9695 37.8767 27.035 37.8121C27.1006 37.7475 27.1784 37.6965 27.2639 37.662C27.3493 37.6276 27.4408 37.6104 27.533 37.6114Z" fill="#F0F0F0"/>
<path opacity="0.28" d="M0.704886 23.1758C0.842426 23.1773 0.976436 23.2194 1.09006 23.2966C1.20368 23.3739 1.29184 23.4829 1.34342 23.61C1.395 23.7371 1.40771 23.8765 1.37994 24.0108C1.35217 24.145 1.28515 24.2681 1.18735 24.3645C1.08956 24.4609 0.965329 24.5263 0.830313 24.5524C0.695297 24.5786 0.55553 24.5644 0.428595 24.5116C0.301661 24.4588 0.193254 24.3698 0.116988 24.2557C0.0407231 24.1416 8.49227e-06 24.0076 1.32801e-09 23.8706C-5.6905e-06 23.7787 0.0182841 23.6877 0.0538019 23.6029C0.0893197 23.5181 0.141376 23.4412 0.206934 23.3766C0.272492 23.3119 0.350257 23.2609 0.435734 23.2265C0.521211 23.192 0.612687 23.1748 0.704886 23.1758Z" fill="#F0F0F0"/>
</g>
<defs>
<clipPath id="clip0_1409_21054">
<rect width="38" height="39" fill="white"/>
</clipPath>
</defs>
</svg>
