<svg width="34" height="35" viewBox="0 0 34 35" fill="none" xmlns="http://www.w3.org/2000/svg">
<path d="M33.7 17.0667C33.7 26.3278 26.222 33.8333 17 33.8333C7.77795 33.8333 0.3 26.3278 0.3 17.0667C0.3 7.80558 7.77795 0.3 17 0.3C26.222 0.3 33.7 7.80558 33.7 17.0667Z" stroke="#FAFAFA" stroke-width="0.6"/>
<path d="M12.9277 16.4779C12.8225 16.2062 12.9435 15.9733 13.0769 15.8165C13.2064 15.6643 13.3901 15.531 13.5332 15.4271L13.5377 15.4239L13.5381 15.4235L13.5407 15.4217C13.6316 15.3554 13.7081 15.2996 13.7709 15.2461L13.7782 15.2399L13.7859 15.2343C14.013 15.0691 14.1516 14.9119 14.2159 14.7634C14.2543 14.6727 14.2651 14.5927 14.2549 14.518C14.2446 14.4428 14.2107 14.3565 14.1343 14.2576L14.1249 14.2453L14.117 14.232L12.7778 11.9672L12.7731 11.9592L12.7732 11.9591C12.7732 11.9591 12.7731 11.9588 12.7726 11.9583C12.7723 11.958 12.772 11.9577 12.7716 11.9574C12.7713 11.9572 12.771 11.9569 12.7707 11.9567C12.769 11.9557 12.7677 11.9554 12.7669 11.9553L12.7614 11.955L12.7614 11.9549C12.0438 11.8914 11.5112 12.073 11.1231 12.3857L11.1227 12.386C10.6745 12.7457 10.4045 13.3016 10.3012 13.9408C10.1138 15.1099 10.4543 16.3562 11.1057 17.535L12.9277 16.4779ZM12.9277 16.4779L12.9276 16.4779L12.9306 16.4853L13.086 16.4226L12.94 16.5036C13.332 17.2102 13.7877 17.8971 14.3839 18.5258M12.9277 16.4779L11.1057 17.5351C11.8818 18.9386 13.078 20.22 14.2546 21.108C14.5652 21.3391 14.8828 21.537 15.1869 21.7264L15.207 21.739L15.2097 21.7407L15.2097 21.7407L15.2578 21.7715C15.922 22.1814 16.5178 22.4818 17.1019 22.6628C17.6961 22.8456 18.2705 22.9024 18.8836 22.8119L18.8836 22.8119C19.2899 22.752 19.6963 22.6604 20.0541 22.4956L20.0553 22.4951C20.4263 22.3265 20.7364 22.079 20.9459 21.7112C21.1129 21.4171 21.2189 21.0816 21.2192 20.7997C21.2164 20.5306 21.1286 20.3281 20.9426 20.1967C20.9379 20.1938 20.9339 20.1912 20.9308 20.189C20.9274 20.1867 20.9243 20.1845 20.9217 20.1825L18.8505 18.9914C18.8403 18.9863 18.8321 18.9818 18.8278 18.9794L18.8268 18.9788C18.8247 18.9776 18.8233 18.9769 18.8226 18.9765C18.7084 18.9234 18.6136 18.9143 18.531 18.9272C18.4451 18.9405 18.356 18.9804 18.261 19.0488C18.0634 19.1912 17.8856 19.4218 17.701 19.6651M14.3839 18.5258C14.3838 18.5258 14.3838 18.5258 14.3838 18.5257L14.5656 18.3541L14.3842 18.5261C14.3841 18.526 14.384 18.5259 14.3839 18.5258ZM14.3839 18.5258C14.9824 19.1598 15.7247 19.7341 16.682 20.2223L16.6819 20.2223L16.6857 20.2242C16.8165 20.2881 16.9546 20.2919 17.0784 20.2437M17.0784 20.2437C17.2177 20.1902 17.3384 20.0861 17.4334 19.9909M17.0784 20.2437L16.9887 20.0103L17.0805 20.2429C17.0798 20.2432 17.0791 20.2434 17.0784 20.2437ZM17.4334 19.9909C17.4335 19.9908 17.4336 19.9907 17.4337 19.9906L17.2567 19.8141L17.4331 19.9912C17.4332 19.9911 17.4333 19.991 17.4334 19.9909ZM17.4334 19.9909C17.5173 19.9073 17.6129 19.7829 17.701 19.6651M17.701 19.6651C17.7009 19.6653 17.7007 19.6655 17.7005 19.6657L17.5013 19.5146L17.7016 19.6643C17.7014 19.6646 17.7012 19.6648 17.701 19.6651ZM15.8479 14.5518L15.7848 14.7937C16.3684 14.9459 16.9221 15.2635 17.3716 15.6832C17.8241 16.1058 18.1705 16.6298 18.3441 17.1841C18.3666 17.257 18.3256 17.334 18.2537 17.3563L18.2535 17.3564C18.1809 17.3791 18.1036 17.3383 18.0812 17.2663L18.081 17.2658C17.9191 16.7485 17.5963 16.2694 17.185 15.8851L17.185 15.8851C16.7703 15.4978 16.26 15.2008 15.717 15.0592L15.7163 15.059C15.6438 15.0404 15.5993 14.9655 15.6183 14.8921C15.6372 14.8191 15.7121 14.7749 15.7853 14.7939L15.8479 14.5518ZM15.8479 14.5518C15.6411 14.4983 15.4298 14.6227 15.3763 14.8295C15.3228 15.0363 15.4472 15.2479 15.6539 15.3011L17.5423 15.5005C17.065 15.0549 16.4751 14.7153 15.8479 14.5518ZM18.9296 18.7505C18.9365 18.7537 18.9425 18.7571 18.9486 18.7605C18.9547 18.7639 18.9608 18.7673 18.9677 18.7705L18.9296 18.7505ZM15.7481 12.6815L15.7472 12.6813C15.6728 12.6687 15.6219 12.5977 15.6348 12.5221L15.6348 12.5218C15.6473 12.4479 15.7184 12.3968 15.7938 12.4096L15.8356 12.1632L15.793 12.4095C16.9218 12.6049 18.0011 13.1799 18.87 13.9932L18.8701 13.9933C19.7395 14.8066 20.3936 15.8531 20.6802 16.9804C20.6991 17.0546 20.6542 17.1298 20.5804 17.1485C20.5062 17.1673 20.431 17.1224 20.4123 17.0487L20.4122 17.0485C20.1356 15.9615 19.5081 14.9634 18.6838 14.1922C17.8614 13.4225 16.8342 12.8697 15.7481 12.6815ZM15.7054 12.9278C15.4942 12.892 15.3525 12.6914 15.3883 12.4802L15.7054 12.9278ZM15.9837 10.525L15.983 10.525C15.9077 10.5163 15.8532 10.448 15.8619 10.3723C15.8705 10.2966 15.939 10.2423 16.0143 10.2509L16.0427 10.0025L16.0136 10.2508C17.6115 10.4379 19.1187 11.1718 20.3145 12.2558L20.3145 12.2558C21.5133 13.3422 22.3957 14.7772 22.7467 16.3526C22.763 16.4261 22.7163 16.4994 22.6426 16.5157L22.6425 16.5157C22.5691 16.5319 22.4958 16.4853 22.4795 16.4116L22.4794 16.4111C22.1396 14.8859 21.2851 13.5036 20.1316 12.4585C18.983 11.4176 17.5314 10.7059 15.9837 10.525Z" stroke="#FAFAFA" stroke-width="0.5"/>
</svg>
