<svg width="46" height="47" viewBox="0 0 46 47" fill="none" xmlns="http://www.w3.org/2000/svg">
<g clip-path="url(#clip0_2791_4613)">
<path opacity="0.28" d="M5.19876 8.67078C5.66156 8.66711 6.1129 8.52759 6.49591 8.26982C6.87892 8.01205 7.17644 7.64756 7.35099 7.22229C7.52554 6.79703 7.5693 6.33002 7.47675 5.88011C7.3842 5.43021 7.15948 5.01756 6.83092 4.69417C6.50236 4.37078 6.08466 4.15112 5.63047 4.06288C5.17628 3.97464 4.70593 4.02177 4.2787 4.19832C3.85147 4.37488 3.48645 4.67296 3.2297 5.055C2.97295 5.43704 2.83595 5.88594 2.83594 6.34512C2.84808 6.96136 3.10148 7.54873 3.54251 7.98282C3.98354 8.41691 4.57756 8.66365 5.19876 8.67078Z" fill="#F0F0F0"/>
<path opacity="0.42" d="M7.11689 38.508C6.87208 38.7174 6.85584 39.065 7.07905 39.294L10.9177 43.2019C11.1584 43.448 11.5805 43.4553 11.8334 43.219L13.842 41.3385L9.43255 36.5234L7.11689 38.508Z" fill="#EDEDED"/>
<path opacity="0.42" d="M39.6074 28.7257C38.9329 28.1364 37.8597 28.1328 37.1812 28.7169L27.9842 36.6249H21.0827C20.3503 36.6249 19.7565 36.0936 19.7565 35.4382C19.7565 34.7828 20.3502 34.2515 21.0827 34.2515H25.8017C26.7815 34.2515 27.66 33.6299 27.7965 32.7617C27.9628 31.7047 27.0472 30.7794 25.8758 30.7794H18.333C17.1249 30.7794 15.9603 31.1948 15.0835 31.9368L11.0703 35.3361L15.9882 40.6437H26.7781C28.139 40.6437 29.4424 40.1573 30.4006 39.2929L39.6312 30.941C40.3117 30.325 40.3017 29.331 39.6074 28.7257Z" fill="#EDEDED"/>
<path opacity="0.28" d="M43.7486 15.6484C43.5079 15.6503 43.2732 15.7228 43.074 15.8568C42.8748 15.9908 42.72 16.1803 42.6292 16.4014C42.5384 16.6225 42.5155 16.8654 42.5636 17.0994C42.6117 17.3333 42.7286 17.548 42.8994 17.7162C43.0702 17.8844 43.2874 17.9986 43.5236 18.0445C43.7598 18.0904 44.0044 18.066 44.2266 17.9742C44.4488 17.8824 44.6386 17.7274 44.7721 17.5287C44.9056 17.33 44.9769 17.0966 44.9769 16.8578C44.9529 16.5434 44.8155 16.2481 44.5899 16.026C44.3643 15.8039 44.0657 15.6699 43.7486 15.6484Z" fill="#F0F0F0"/>
<path opacity="0.28" d="M44.0329 41.2331C44.5042 41.2331 44.8862 40.8582 44.8862 40.3958C44.8862 39.9334 44.5042 39.5586 44.0329 39.5586C43.5617 39.5586 43.1797 39.9334 43.1797 40.3958C43.1797 40.8582 43.5617 41.2331 44.0329 41.2331Z" fill="#F0F0F0"/>
<path opacity="0.28" d="M41.0993 22.0704C41.2658 22.0722 41.4281 22.1229 41.5656 22.216C41.7031 22.3091 41.8098 22.4405 41.8722 22.5936C41.9347 22.7467 41.9501 22.9148 41.9165 23.0766C41.8828 23.2384 41.8017 23.3867 41.6834 23.5028C41.565 23.619 41.4146 23.6978 41.2512 23.7294C41.0877 23.7609 40.9186 23.7438 40.7649 23.6802C40.6112 23.6165 40.48 23.5092 40.3877 23.3718C40.2954 23.2343 40.2461 23.0728 40.2461 22.9076C40.2461 22.7969 40.2682 22.6872 40.3112 22.585C40.3542 22.4828 40.4172 22.3901 40.4966 22.3123C40.5759 22.2344 40.67 22.1729 40.7735 22.1314C40.877 22.0899 40.9877 22.0691 41.0993 22.0704Z" fill="#F0F0F0"/>
<path opacity="0.28" d="M45.1658 8.67193C45.3322 8.67376 45.4945 8.72443 45.632 8.81754C45.7695 8.91064 45.8762 9.04203 45.9387 9.19517C46.0011 9.34831 46.0165 9.51634 45.9829 9.67813C45.9493 9.83992 45.8682 9.98824 45.7498 10.1044C45.6314 10.2206 45.481 10.2994 45.3176 10.3309C45.1541 10.3625 44.985 10.3454 44.8313 10.2817C44.6777 10.2181 44.5464 10.1108 44.4541 9.97334C44.3618 9.83587 44.3125 9.67437 44.3125 9.50917C44.3125 9.39844 44.3346 9.2888 44.3776 9.18661C44.4206 9.08442 44.4836 8.99171 44.563 8.91385C44.6423 8.83598 44.7365 8.7745 44.8399 8.73298C44.9434 8.69145 45.0541 8.6707 45.1658 8.67193Z" fill="#F0F0F0"/>
<path opacity="0.28" d="M41.4626 5.16793e-05C41.6291 0.00188714 41.7913 0.0525484 41.9289 0.145654C42.0664 0.23876 42.1731 0.370152 42.2355 0.52329C42.298 0.676428 42.3133 0.844468 42.2797 1.00626C42.2461 1.16805 42.165 1.31636 42.0466 1.43252C41.9283 1.54868 41.7779 1.6275 41.6145 1.65906C41.451 1.69062 41.2818 1.6735 41.1282 1.60987C40.9745 1.54623 40.8433 1.43893 40.751 1.30145C40.6586 1.16398 40.6094 1.00248 40.6094 0.837292C40.6094 0.726557 40.6315 0.616921 40.6745 0.514731C40.7175 0.412541 40.7805 0.319826 40.8598 0.241958C40.9392 0.16409 41.0333 0.10262 41.1368 0.0610961C41.2403 0.0195721 41.351 -0.00117871 41.4626 5.16793e-05Z" fill="#F0F0F0"/>
<path opacity="0.28" d="M13.822 0.0195829C13.9885 0.0214184 14.1507 0.0720796 14.2882 0.165185C14.4258 0.258291 14.5325 0.389684 14.5949 0.542822C14.6573 0.69596 14.6727 0.863999 14.6391 1.02579C14.6055 1.18758 14.5244 1.33589 14.406 1.45205C14.2876 1.56821 14.1373 1.64703 13.9738 1.67859C13.8104 1.71015 13.6412 1.69303 13.4876 1.6294C13.3339 1.56577 13.2027 1.45846 13.1103 1.32098C13.018 1.18351 12.9688 1.02201 12.9688 0.856823C12.9687 0.746088 12.9909 0.636452 13.0339 0.534262C13.0769 0.432073 13.1399 0.339357 13.2192 0.261489C13.2986 0.183622 13.3927 0.122151 13.4962 0.0806273C13.5996 0.0391033 13.7104 0.0183525 13.822 0.0195829Z" fill="#F0F0F0"/>
<path opacity="0.28" d="M9.08605 16.3008C9.25295 16.3008 9.41612 16.3499 9.5549 16.4419C9.69367 16.5339 9.80184 16.6646 9.86571 16.8176C9.92958 16.9706 9.94628 17.1389 9.91372 17.3014C9.88116 17.4638 9.80079 17.6129 9.68278 17.73C9.56476 17.8471 9.41439 17.9269 9.2507 17.9592C9.087 17.9915 8.91731 17.9749 8.76311 17.9115C8.60891 17.8482 8.47713 17.7408 8.3844 17.6032C8.29168 17.4655 8.24219 17.3036 8.24219 17.138C8.24219 16.916 8.3311 16.703 8.48936 16.546C8.64761 16.389 8.86224 16.3008 9.08605 16.3008Z" fill="#F0F0F0"/>
<path opacity="0.28" d="M33.3259 45.3243C33.4924 45.3261 33.6546 45.3768 33.7921 45.4699C33.9297 45.563 34.0364 45.6944 34.0988 45.8475C34.1613 46.0006 34.1766 46.1687 34.143 46.3305C34.1094 46.4923 34.0283 46.6406 33.9099 46.7567C33.7915 46.8729 33.6412 46.9517 33.4777 46.9833C33.3143 47.0148 33.1451 46.9977 32.9915 46.9341C32.8378 46.8704 32.7066 46.7631 32.6142 46.6257C32.5219 46.4882 32.4727 46.3267 32.4727 46.1615C32.4726 46.0508 32.4948 45.9411 32.5378 45.8389C32.5808 45.7368 32.6438 45.644 32.7231 45.5662C32.8025 45.4883 32.8966 45.4268 33.0001 45.3853C33.1036 45.3438 33.2143 45.323 33.3259 45.3243Z" fill="#F0F0F0"/>
<path opacity="0.28" d="M0.853251 27.9297C1.01974 27.9316 1.18196 27.9822 1.31949 28.0753C1.45703 28.1684 1.56375 28.2998 1.62618 28.453C1.68862 28.6061 1.704 28.7741 1.67039 28.9359C1.63678 29.0977 1.55565 29.246 1.43727 29.3622C1.31889 29.4784 1.16851 29.5572 1.00508 29.5887C0.841644 29.6203 0.672458 29.6032 0.518806 29.5395C0.365155 29.4759 0.23393 29.3686 0.141612 29.2311C0.0492945 29.0937 1.02797e-05 28.9322 1.60753e-09 28.767C-6.88824e-06 28.6562 0.0221326 28.5466 0.0651262 28.4444C0.10812 28.3422 0.171133 28.2495 0.25049 28.1716C0.329846 28.0938 0.42398 28.0323 0.527448 27.9908C0.630916 27.9493 0.741645 27.9285 0.853251 27.9297Z" fill="#F0F0F0"/>
</g>
<defs>
<clipPath id="clip0_2791_4613">
<rect width="46" height="47" fill="white"/>
</clipPath>
</defs>
</svg>
