<svg width="52" height="54" viewBox="0 0 52 54" fill="none" xmlns="http://www.w3.org/2000/svg">
<path d="M36.5033 13.7034L37.8498 5.45796C37.8828 5.22335 37.8205 5.02015 37.6625 4.84812C37.5045 4.67609 37.3087 4.59008 37.0752 4.59008H22.9248L22.9232 4.58984C22.69 4.58984 22.4945 4.67586 22.336 4.84789C22.1775 5.01992 22.1152 5.22312 22.1487 5.45772L23.4955 13.7051C22.5385 14.943 22.0398 16.4046 22 18.0899C22.05 20.215 22.8292 21.9845 24.3375 23.3985C25.8457 24.8124 27.7333 25.5427 30 25.5898C32.2667 25.543 34.1542 24.8124 35.6625 23.3985C37.1707 21.9843 37.9498 20.215 38 18.0899C37.9602 16.4039 37.461 14.9418 36.5033 13.7034ZM33.2003 6.09006H36.1258L35.1505 12.0436C34.6318 11.7942 34.132 11.5812 33.652 11.4042C33.504 11.3339 33.3532 11.2683 33.2 11.2071L33.2003 6.09006ZM31.6 6.09006V10.7484C31.2705 10.688 30.9315 10.6446 30.5833 10.6184C30.3815 10.5996 30.187 10.5902 30 10.5902C29.7365 10.5902 29.4727 10.6057 29.209 10.6362C28.9377 10.6621 28.6677 10.6995 28.4 10.7484V6.09006H31.6ZM26.801 6.09006V11.2064C26.6455 11.2688 26.4925 11.3353 26.342 11.407C25.8638 11.5838 25.3665 11.7961 24.8505 12.0436L23.8753 6.09006H26.801ZM34.5247 22.3318C33.3247 23.4568 31.8165 24.0428 30 24.0899C28.1835 24.0428 26.6753 23.4568 25.4753 22.3318C24.2753 21.2068 23.6503 19.7929 23.6 18.0899C23.6503 16.387 24.2753 14.973 25.4753 13.848C25.967 13.387 26.5105 13.0167 27.1058 12.7369C28.064 12.3844 28.8845 12.1762 29.5668 12.1123C29.6935 12.1027 29.8217 12.0959 29.9515 12.0916C29.9672 12.0914 29.9835 12.0909 29.9992 12.0909C30.0157 12.0909 30.033 12.0916 30.0497 12.0919C30.1775 12.0959 30.3035 12.1027 30.428 12.112C31.113 12.1755 31.9373 12.3851 32.9008 12.7399C33.4935 13.0195 34.0347 13.3889 34.5247 13.8483C35.7247 14.9732 36.3497 16.3872 36.4 18.0902C36.3497 19.7929 35.7247 21.2068 34.5247 22.3318Z" fill="#F5F5F5"/>
<path d="M30.8873 15.6196V21.6039H29.921V16.5254H29.8836L28.3564 17.4605V16.5956L29.9491 15.6196H30.8873Z" fill="#F5F5F5"/>
<g opacity="0.28">
<path d="M5.8388 9.81918C6.35886 9.81502 6.86605 9.65706 7.29645 9.36519C7.72685 9.07333 8.06119 8.66063 8.25734 8.17911C8.45348 7.6976 8.50267 7.16882 8.39866 6.65941C8.29466 6.15 8.04214 5.68277 7.67292 5.31661C7.30371 4.95044 6.83431 4.70172 6.32392 4.60181C5.81353 4.5019 5.28498 4.55527 4.80488 4.75518C4.32478 4.95508 3.9146 5.29259 3.62608 5.72516C3.33756 6.15773 3.18361 6.66601 3.18359 7.18592C3.19724 7.88367 3.48199 8.54872 3.9776 9.04023C4.4732 9.53174 5.14073 9.81111 5.8388 9.81918Z" fill="#F0F0F0"/>
<path d="M7.9965 43.6025C7.72138 43.8396 7.70314 44.2332 7.95397 44.4924L12.2676 48.9173C12.5382 49.1959 13.0124 49.2042 13.2966 48.9367L15.5538 46.8074L10.5987 41.3555L7.9965 43.6025Z" fill="#EDEDED"/>
<path d="M44.5097 32.5267C43.7517 31.8594 42.5457 31.8554 41.7833 32.5167L31.4482 41.4706H23.6927C22.8697 41.4706 22.2024 40.8691 22.2024 40.127C22.2024 39.385 22.8696 38.7834 23.6927 38.7834H28.9957C30.0967 38.7834 31.0839 38.0795 31.2373 37.0965C31.4242 35.8996 30.3953 34.852 29.079 34.852H20.6028C19.2452 34.852 17.9365 35.3224 16.9512 36.1625L12.4414 40.0114L17.9678 46.021H30.0929C31.6222 46.021 33.0868 45.4703 34.1636 44.4915L44.5364 35.035C45.3011 34.3375 45.2899 33.212 44.5097 32.5267Z" fill="#EDEDED"/>
<path d="M49.1639 17.7188C48.8935 17.7208 48.6297 17.8029 48.4058 17.9546C48.182 18.1063 48.008 18.3209 47.906 18.5713C47.8039 18.8217 47.7783 19.0967 47.8323 19.3616C47.8863 19.6265 48.0176 19.8695 48.2096 20.06C48.4016 20.2504 48.6457 20.3798 48.9111 20.4318C49.1765 20.4838 49.4513 20.456 49.701 20.3521C49.9507 20.2481 50.164 20.0726 50.3141 19.8477C50.4641 19.6227 50.5442 19.3584 50.5442 19.0881C50.5172 18.7321 50.3628 18.3978 50.1093 18.1463C49.8558 17.8948 49.5202 17.743 49.1639 17.7188Z" fill="#F0F0F0"/>
<path d="M49.4823 46.685C50.0118 46.685 50.4411 46.2606 50.4411 45.737C50.4411 45.2135 50.0118 44.7891 49.4823 44.7891C48.9527 44.7891 48.5234 45.2135 48.5234 45.737C48.5234 46.2606 48.9527 46.685 49.4823 46.685Z" fill="#F0F0F0"/>
<path d="M46.1854 24.9883C46.3725 24.9904 46.5548 25.0478 46.7093 25.1532C46.8639 25.2586 46.9838 25.4074 47.0539 25.5808C47.1241 25.7542 47.1414 25.9444 47.1036 26.1276C47.0658 26.3108 46.9747 26.4787 46.8417 26.6103C46.7086 26.7418 46.5397 26.831 46.356 26.8668C46.1724 26.9025 45.9822 26.8831 45.8096 26.8111C45.6369 26.739 45.4894 26.6175 45.3857 26.4619C45.2819 26.3062 45.2266 26.1233 45.2266 25.9363C45.2266 25.8109 45.2514 25.6868 45.2997 25.5711C45.3481 25.4554 45.4188 25.3504 45.508 25.2622C45.5972 25.1741 45.703 25.1045 45.8192 25.0574C45.9355 25.0104 46.06 24.9869 46.1854 24.9883Z" fill="#F0F0F0"/>
<path d="M50.7557 9.82037C50.9428 9.82245 51.1251 9.87982 51.2796 9.98524C51.4342 10.0907 51.5541 10.2394 51.6242 10.4128C51.6944 10.5862 51.7117 10.7765 51.6739 10.9597C51.6362 11.1429 51.545 11.3108 51.412 11.4423C51.279 11.5738 51.11 11.6631 50.9263 11.6988C50.7427 11.7345 50.5525 11.7152 50.3799 11.6431C50.2072 11.5711 50.0597 11.4496 49.956 11.2939C49.8522 11.1383 49.7969 10.9554 49.7969 10.7684C49.7969 10.643 49.8217 10.5188 49.8701 10.4031C49.9184 10.2874 49.9892 10.1825 50.0783 10.0943C50.1675 10.0061 50.2733 9.93651 50.3896 9.8895C50.5058 9.84248 50.6303 9.81898 50.7557 9.82037Z" fill="#F0F0F0"/>
<path d="M46.5956 5.85147e-05C46.7826 0.00213675 46.9649 0.0594987 47.1195 0.164919C47.274 0.270339 47.3939 0.419111 47.4641 0.592504C47.5343 0.765896 47.5515 0.956162 47.5138 1.13935C47.476 1.32254 47.3849 1.49047 47.2518 1.62199C47.1188 1.75352 46.9498 1.84276 46.7662 1.8785C46.5825 1.91423 46.3924 1.89485 46.2197 1.8228C46.0471 1.75075 45.8996 1.62925 45.7958 1.47359C45.6921 1.31793 45.6367 1.13508 45.6367 0.948036C45.6367 0.822655 45.6616 0.698518 45.7099 0.582812C45.7582 0.467106 45.829 0.362128 45.9182 0.273961C46.0073 0.185794 46.1131 0.116193 46.2294 0.069177C46.3457 0.0221608 46.4701 -0.00133461 46.5956 5.85147e-05Z" fill="#F0F0F0"/>
<path d="M15.5331 0.023496C15.7201 0.0255742 15.9024 0.0829362 16.057 0.188357C16.2115 0.293777 16.3314 0.442548 16.4016 0.615941C16.4718 0.789334 16.489 0.979599 16.4513 1.16279C16.4135 1.34598 16.3224 1.5139 16.1893 1.64543C16.0563 1.77695 15.8873 1.8662 15.7037 1.90193C15.52 1.93767 15.3299 1.91828 15.1572 1.84624C14.9846 1.77419 14.8371 1.65268 14.7333 1.49703C14.6296 1.34137 14.5742 1.15851 14.5742 0.971474C14.5742 0.846093 14.5991 0.721955 14.6474 0.60625C14.6957 0.490544 14.7665 0.385565 14.8557 0.297398C14.9448 0.209231 15.0506 0.139631 15.1669 0.0926145C15.2832 0.0455983 15.4076 0.0221029 15.5331 0.023496Z" fill="#F0F0F0"/>
<path d="M10.21 18.457C10.3976 18.457 10.5809 18.5126 10.7369 18.6168C10.8928 18.721 11.0144 18.869 11.0861 19.0422C11.1579 19.2154 11.1767 19.4061 11.1401 19.5899C11.1035 19.7738 11.0132 19.9427 10.8806 20.0753C10.7479 20.2079 10.579 20.2982 10.395 20.3348C10.2111 20.3713 10.0204 20.3526 9.8471 20.2808C9.67382 20.2091 9.52573 20.0876 9.42153 19.9317C9.31733 19.7758 9.26172 19.5925 9.26172 19.405C9.26172 19.1536 9.36164 18.9125 9.53947 18.7347C9.71731 18.5569 9.9585 18.457 10.21 18.457Z" fill="#F0F0F0"/>
<path d="M37.4471 51.3204C37.6342 51.3224 37.8165 51.3798 37.971 51.4852C38.1256 51.5906 38.2455 51.7394 38.3157 51.9128C38.3858 52.0862 38.4031 52.2765 38.3653 52.4597C38.3276 52.6429 38.2364 52.8108 38.1034 52.9423C37.9704 53.0738 37.8014 53.1631 37.6177 53.1988C37.4341 53.2345 37.2439 53.2151 37.0713 53.1431C36.8986 53.0711 36.7511 52.9496 36.6474 52.7939C36.5436 52.6382 36.4883 52.4554 36.4883 52.2683C36.4883 52.143 36.5132 52.0188 36.5615 51.9031C36.6098 51.7874 36.6806 51.6824 36.7697 51.5943C36.8589 51.5061 36.9647 51.4365 37.081 51.3895C37.1973 51.3425 37.3217 51.319 37.4471 51.3204Z" fill="#F0F0F0"/>
<path d="M0.958832 31.6231C1.14592 31.6252 1.32821 31.6825 1.48277 31.788C1.63732 31.8934 1.75724 32.0421 1.8274 32.2155C1.89757 32.3889 1.91486 32.5792 1.87708 32.7624C1.83931 32.9456 1.74815 33.1135 1.61512 33.245C1.48209 33.3766 1.3131 33.4658 1.12945 33.5015C0.94579 33.5373 0.755668 33.5179 0.583004 33.4458C0.410339 33.3738 0.262877 33.2523 0.159135 33.0966C0.0553942 32.941 1.15517e-05 32.7581 1.80444e-09 32.5711C-7.7406e-06 32.4457 0.0248713 32.3216 0.0731849 32.2058C0.121499 32.0901 0.192309 31.9852 0.281485 31.897C0.370662 31.8088 0.476443 31.7392 0.592714 31.6922C0.708985 31.6452 0.833417 31.6217 0.958832 31.6231Z" fill="#F0F0F0"/>
</g>
</svg>
