<svg width="51" height="61" viewBox="0 0 51 61" fill="none" xmlns="http://www.w3.org/2000/svg">
<path d="M27.4811 15.2383C23.9346 16.193 21.8184 19.8295 22.7643 23.3436C23.7102 26.8576 27.366 28.9404 30.9124 27.9858C34.4588 27.0312 36.5751 23.3947 35.6292 19.8806C34.6833 16.3666 31.0275 14.2837 27.4811 15.2383ZM30.3405 25.8612C27.9755 26.4979 25.5392 25.1098 24.9084 22.7664C24.2776 20.423 25.688 17.9995 28.0529 17.3629C30.4179 16.7263 32.8542 18.1144 33.485 20.4578C34.1158 22.8012 32.7055 25.2246 30.3405 25.8612ZM18.5087 34.7424L17.8651 27.3282C17.7231 26.6813 17.6215 26.3039 17.5602 26.1958C17.0469 25.3223 16.2469 24.7424 15.3036 24.5612C14.3485 24.3785 13.3726 24.623 12.5354 25.263C12.0557 25.6337 11.6738 26.3334 11.4947 27.1632L9.16236 37.2583L3.89634 38.6758C1.53134 39.3124 0.121032 41.7358 0.751828 44.0792L4.18318 56.8267C4.81397 59.1701 7.25026 60.5582 9.61525 59.9216L36.4171 52.7071L35.0237 34.6398L33.9144 30.5955L18.5087 34.7424ZM6.32732 56.2496L2.89597 43.5021C2.58029 42.3293 3.2868 41.1184 4.46823 40.8003L8.75652 39.646L13.3317 56.6427L9.04336 57.797C7.86194 58.115 6.64301 57.4223 6.32732 56.2496ZM34.0656 51.0616L15.4758 56.0655L10.9007 39.0689L13.6623 27.6301C13.7672 27.1484 13.9016 26.9983 13.8962 26.9952C14.2095 26.7582 14.5536 26.6611 14.871 26.7214C15.1432 26.7758 15.3881 26.9423 15.5621 27.1871L16.5248 37.555L32.3593 33.2927L32.8474 35.0206L34.0656 51.0616ZM44.6465 23.079L50.2674 24.8767L48.1995 31.1615L42.5694 29.3641C41.6822 30.8606 40.5461 32.1758 39.2378 33.2867L38.5967 30.9051C39.575 29.9263 40.4087 28.795 41.0505 27.54L41.4818 26.6993L46.7803 28.3923L47.4696 26.2974L42.176 24.6053L42.3298 23.673C42.6379 21.8105 42.5471 19.9529 42.0616 18.1491C41.5761 16.3454 40.7199 14.6938 39.5206 13.2371L38.9197 12.5079L42.6486 8.38716L41.0008 6.92131L37.2681 11.0454L36.4731 10.5348C33.9088 8.885 30.8236 8.16153 27.7917 8.49915L26.8455 8.60576L25.4077 3.26457L23.2636 3.84173L24.7013 9.18292L23.8294 9.56573C21.0441 10.7939 18.7433 12.9672 17.3506 15.6867L16.9192 16.5274L11.611 14.8324L10.9217 16.9274L16.2635 18.6361C16.0897 19.3573 15.9629 20.091 15.9139 20.8401L8.12173 18.3487L10.1918 12.0632L15.8295 13.8632C17.316 11.3554 19.4885 9.30328 22.0718 7.96539L20.5454 2.29488L26.9778 0.563405L28.5048 6.23604C31.4164 6.09255 34.3277 6.77627 36.8695 8.19743L40.8365 3.81661L45.7799 8.21415L41.8209 12.5905C42.9198 14.1016 43.7192 15.773 44.2042 17.5747C44.6891 19.3763 44.8368 21.2232 44.6449 23.0817L44.6465 23.079Z" fill="black"/>
</svg>
