<svg width="62" height="56" viewBox="0 0 62 56" fill="none" xmlns="http://www.w3.org/2000/svg">
<path d="M61.9326 36.3319C61.8302 35.7149 61.6063 35.1244 61.2737 34.5946C60.9411 34.0648 60.5066 33.6062 59.9953 33.2456L56.0431 30.4358C55.0226 29.7063 53.8507 29.2161 52.6144 29.0016C51.3782 28.7871 50.1095 28.8538 48.9026 29.1969L50.9285 25.8119C51.3329 25.1166 51.5401 24.3242 51.5276 23.5201C51.5152 22.7159 51.2836 21.9304 50.8579 21.2479C50.4321 20.5654 49.8282 20.0117 49.1112 19.6464C48.3941 19.2811 47.591 19.1181 46.7881 19.1747C46.9649 18.2747 46.8575 17.3421 46.4807 16.5058C46.1039 15.6695 45.4763 14.9708 44.6848 14.5065C43.5383 13.9104 42.2057 13.7797 40.9651 14.1415C40.8787 13.5362 40.654 12.959 40.3085 12.4545C39.9629 11.95 39.5057 11.5317 38.9724 11.2322C38.0302 10.6954 36.9236 10.5227 35.8625 10.747C34.8014 10.9713 33.8596 11.5769 33.2157 12.449C32.8397 11.7535 32.2842 11.1713 31.6068 10.7631C30.9294 10.3548 30.1549 10.1353 29.3639 10.1274C28.5728 10.1195 27.7941 10.3234 27.1087 10.7181C26.4233 11.1128 25.8562 11.6837 25.4664 12.3715L24.5364 13.9755L21.8352 12.0507C22.1374 10.4871 21.9852 8.86964 21.3966 7.38965C20.8081 5.90965 19.8078 4.62895 18.5141 3.69892L14.5508 0.8781C13.5214 0.150086 12.2458 -0.142137 11.0018 0.0650403C9.75781 0.272218 8.64605 0.962023 7.90854 1.9843C7.36609 2.74758 6.42509 3.70998 7.45465 4.5175L11.429 7.32726C11.5784 7.42739 11.7055 7.55729 11.8024 7.70882C11.8993 7.86035 11.9637 8.03024 11.9918 8.20784C12.0199 8.38544 12.0109 8.56691 11.9655 8.74089C11.9201 8.91487 11.8392 9.07759 11.7279 9.21886L8.91596 13.168C8.81568 13.309 8.68859 13.4288 8.54195 13.5206C8.39531 13.6125 8.232 13.6746 8.06133 13.7034C7.89067 13.7321 7.71601 13.727 7.54733 13.6883C7.37865 13.6496 7.21925 13.578 7.07826 13.4777L3.12609 10.6237C3.00777 10.5383 2.87371 10.4771 2.73162 10.4436C2.58953 10.4102 2.44223 10.4051 2.29818 10.4287C2.15413 10.4524 2.01618 10.5043 1.89227 10.5814C1.76837 10.6585 1.66096 10.7594 1.57622 10.8782L0.878773 11.8737C0.150201 12.9024 -0.142246 14.177 0.0650901 15.42C0.272426 16.6631 0.962761 17.774 1.98582 18.511L5.93799 21.3207C6.83426 21.9557 7.84716 22.4077 8.91861 22.6507C9.99006 22.8936 11.099 22.9229 12.1818 22.7367C9.96766 25.8451 8.52849 29.1969 9.30343 32.0841L10.8201 37.7589L7.49893 45.624C7.39753 45.8914 7.4037 46.1876 7.51615 46.4506C7.6286 46.7136 7.83859 46.9228 8.10208 47.0344C8.36557 47.146 8.66207 47.1513 8.9294 47.0492C9.19672 46.9472 9.41409 46.7456 9.53591 46.4868L13.0231 38.2788C13.1214 38.052 13.1409 37.7989 13.0785 37.5598L11.4511 31.5088C10.8201 29.1305 12.5582 25.469 16.1671 21.2433C17.3517 20.0265 18.8351 17.4933 20.8942 18.688C22.0013 19.3406 32.6068 25.48 32.6068 25.48C33.091 25.7737 33.4765 26.2051 33.7139 26.719C33.9124 27.1686 33.9885 27.6627 33.9343 28.1512C33.8802 28.6397 33.6977 29.1052 33.4055 29.5005C33.1133 29.8958 32.7217 30.2069 32.2703 30.4023C31.819 30.5976 31.324 30.6702 30.8356 30.6128C30.2156 30.7345 24.1933 26.9513 23.5844 26.6637C23.3382 26.5233 23.0474 26.4827 22.7721 26.5502C22.4968 26.6177 22.2579 26.7881 22.1046 27.0263C21.9513 27.2646 21.8954 27.5526 21.9482 27.8308C22.0011 28.1091 22.1588 28.3565 22.3888 28.5221C23.9386 29.6283 27.8133 33.0796 27.2266 35.9336C27.0684 37.0134 26.7861 38.0713 26.3852 39.0863C26.1371 39.2462 25.9627 39.498 25.9005 39.7864C25.8382 40.0748 25.8931 40.376 26.0531 40.6239C26.2131 40.8719 26.4651 41.0461 26.7537 41.1083C27.0423 41.1706 27.3438 41.1157 27.5919 40.9558C28.079 40.6903 28.6989 40.093 29.4185 36.3983C29.6638 34.9353 29.3897 33.4328 28.6436 32.1504C29.1885 32.4922 29.7998 32.7147 30.437 32.8031L40.1348 39.7058C39.1758 41.4125 37.8662 42.8971 36.2921 44.062C34.718 45.2269 32.915 46.0457 31.0016 46.4647C30.1492 46.7744 29.02 46.4647 28.4 47.1616L23.0087 54.2634C22.8462 54.4976 22.7804 54.7853 22.825 55.0667C22.8696 55.3482 23.0211 55.6015 23.248 55.7741C23.4749 55.9466 23.7597 56.025 24.043 55.993C24.3264 55.9609 24.5864 55.8208 24.7689 55.6019L29.8613 48.8873C33.9079 48.4032 37.6293 46.4316 40.3008 43.3563C40.9761 46.8297 44.873 48.8873 47.4967 50.8342C48.0054 51.1975 48.5809 51.4571 49.1901 51.5982C49.7993 51.7392 50.4303 51.759 51.0472 51.6562C51.664 51.5535 52.2546 51.3303 52.7851 50.9995C53.3156 50.6686 53.7756 50.2366 54.139 49.728C54.6703 48.9758 55.6113 48.0134 54.5707 47.2058L50.5632 44.3961C50.284 44.1865 50.097 43.877 50.0413 43.5326C49.9855 43.1882 50.0655 42.8356 50.2643 42.5487C54.5818 36.6195 52.8769 37.0177 58.8661 41.1107C58.9851 41.1956 59.1197 41.2561 59.2622 41.2887C59.4047 41.3213 59.5523 41.3254 59.6964 41.3007C59.8405 41.276 59.9782 41.223 60.1017 41.1448C60.2253 41.0667 60.332 40.9648 60.4159 40.8452L61.1134 39.8717C61.4781 39.3655 61.7384 38.7918 61.879 38.1841C62.0197 37.5763 62.0379 36.9467 61.9326 36.3319ZM22.7098 17.1835C21.8306 16.4869 20.7276 16.1342 19.607 16.1912C18.4864 16.2482 17.4249 16.7111 16.621 17.4933C16.0122 18.0464 15.514 18.8318 14.8276 19.3296C12.4364 20.7897 9.66875 21.2543 7.22217 19.4955L3.32535 16.6857C3.04948 16.4856 2.81643 16.2324 2.6399 15.941C2.46337 15.6496 2.34693 15.3259 2.29742 14.9889C2.24791 14.6519 2.26633 14.3084 2.35161 13.9786C2.43688 13.6488 2.58728 13.3393 2.79397 13.0684L5.84943 15.2809C6.61367 15.821 7.56081 16.0369 8.48389 15.8815C9.40697 15.726 10.231 15.2118 10.7758 14.4512L13.5988 10.5021C14.1405 9.73975 14.3584 8.79425 14.2049 7.87198C14.0514 6.94971 13.539 6.12557 12.7796 5.57946L9.71304 3.36705C9.9096 3.07656 10.1629 2.8288 10.4578 2.63869C10.7527 2.44859 11.0831 2.32006 11.429 2.26085C12.08 2.15614 12.7463 2.30674 13.2888 2.68121L17.241 5.50203C18.2706 6.2307 19.0497 7.25945 19.4718 8.44752C19.8939 9.6356 19.9383 10.925 19.599 12.1392C19.5191 12.3669 19.5159 12.6144 19.5898 12.8441C19.6638 13.0738 19.8108 13.273 20.0086 13.4114L23.4515 15.8561L22.7098 17.1835ZM45.1608 22.4933C45.4915 22.0739 45.9629 21.7881 46.4879 21.6888C47.013 21.5894 47.5563 21.6832 48.0176 21.9528C48.4789 22.2223 48.827 22.6495 48.9978 23.1554C49.1686 23.6614 49.1505 24.212 48.9469 24.7057L44.5187 32.4491C44.188 32.8685 43.7166 33.1543 43.1915 33.2536C42.6665 33.353 42.1232 33.2592 41.6619 32.9896C41.2006 32.7201 40.8524 32.2929 40.6816 31.787C40.5108 31.281 40.5289 30.7304 40.7326 30.2367L45.1608 22.4933ZM40.5333 17.2499C40.651 16.9533 40.8314 16.6856 41.0623 16.4652C41.2932 16.2449 41.5691 16.077 41.871 15.9732C42.173 15.8693 42.4938 15.832 42.8115 15.8637C43.1292 15.8954 43.4363 15.9953 43.7118 16.1568C43.9872 16.3182 44.2244 16.5372 44.4072 16.7988C44.5899 17.0605 44.7139 17.3585 44.7706 17.6725C44.8272 17.9865 44.8153 18.309 44.7355 18.6179C44.6557 18.9269 44.51 19.2149 44.3084 19.4623L39.8802 27.2057C39.6911 27.5181 39.4277 27.7788 39.1133 27.9648C38.799 28.1507 38.4435 28.2561 38.0785 28.2714C37.7135 28.2867 37.3504 28.2116 37.0215 28.0527C36.6927 27.8937 36.4083 27.656 36.1937 27.3606C36.1937 26.542 35.5073 25.7676 36.1051 25.0154L40.5333 17.2499ZM24.625 18.2897C24.625 18.2897 27.4148 12.7587 28.7432 12.46C29.1607 12.3595 29.5984 12.3825 30.0031 12.5261C30.4077 12.6697 30.7618 12.9278 31.0223 13.269C31.2828 13.6101 31.4383 14.0196 31.47 14.4475C31.5017 14.8754 31.4082 15.3033 31.2009 15.6791L28.4111 20.48L24.625 18.2897ZM30.3706 21.6083L34.7988 13.9313C35.008 13.5594 35.3245 13.2591 35.7069 13.0695C36.0894 12.8798 36.5202 12.8097 36.9431 12.8682C37.366 12.9267 37.7615 13.1111 38.078 13.3974C38.3946 13.6837 38.6175 14.0586 38.7178 14.4733C38.7848 15.394 38.5476 16.3111 38.0425 17.084L34.1235 23.8207L30.3706 21.6083ZM59.3089 38.5885V38.666L56.2534 36.4536C55.4896 35.9151 54.5442 35.6991 53.6221 35.8524C52.7 36.0056 51.8754 36.5157 51.3271 37.2722L48.4598 41.2987C47.9232 42.0647 47.7084 43.0103 47.8616 43.9326C48.0147 44.855 48.5236 45.6806 49.279 46.2324L52.3345 48.4448C52.1393 48.7256 51.8897 48.9644 51.6005 49.147C51.3113 49.3297 50.9884 49.4525 50.6508 49.5082C50.3133 49.5639 49.968 49.5513 49.6353 49.4713C49.3027 49.3912 48.9896 49.2453 48.7144 49.0421L44.7622 46.2213C43.8664 45.5792 43.1588 44.7091 42.7131 43.7015C42.2673 42.6939 42.0995 41.5855 42.2271 40.4912C42.2271 39.8496 42.8028 38.7876 41.9946 38.2788L33.5146 32.2389C34.3513 31.8139 35.0443 31.1521 35.5073 30.3363C35.6009 30.1749 35.6859 30.0088 35.7619 29.8385C36.5175 30.2797 37.3925 30.4732 38.2639 30.3916C38.1406 31.0277 38.1587 31.6832 38.3168 32.3116C38.4749 32.94 38.7693 33.526 39.179 34.0283C39.5887 34.5305 40.1038 34.9367 40.6879 35.2182C41.272 35.4996 41.9108 35.6495 42.5592 35.6571C44.7733 35.6571 46.1239 34.1969 46.9874 32.3385C47.2094 32.3357 47.4254 32.2663 47.6074 32.1394C48.6435 31.3973 49.8862 30.9982 51.161 30.9982C52.4358 30.9982 53.6785 31.3973 54.7146 32.1394L58.6779 35.0487C58.9529 35.2389 59.1875 35.4816 59.3682 35.7629C59.549 36.0441 59.6722 36.3583 59.7309 36.6873C59.7895 37.0164 59.7824 37.3538 59.71 37.6801C59.6376 38.0064 59.5013 38.3151 59.3089 38.5885Z" fill="#22242F"/>
</svg>
