<svg width="54" height="53" viewBox="0 0 54 53" fill="none" xmlns="http://www.w3.org/2000/svg">
<path d="M45.8065 45.4176L45.8067 45.4174C46.8638 44.3605 46.8638 42.6404 45.8067 41.5832C45.2948 41.0714 44.6137 40.7891 43.8894 40.7891C43.1655 40.7891 42.4845 41.0714 41.9722 41.5838C40.9155 42.6404 40.9155 44.3605 41.9725 45.4174C43.0298 46.4743 44.7496 46.4743 45.8065 45.4176ZM42.8156 44.5742C42.5289 44.2875 42.371 43.9062 42.371 43.5003C42.371 43.0947 42.5289 42.7131 42.8156 42.4264C43.1026 42.1397 43.4841 41.9816 43.8898 41.9816C44.2954 41.9816 44.6766 42.1396 44.9636 42.4264C45.5556 43.0186 45.5556 43.982 44.9634 44.5742C44.3712 45.1665 43.4079 45.1663 42.8156 44.5742Z" fill="#22242F"/>
<path d="M50.5329 11.6273C50.5335 11.6265 50.5343 11.626 50.5349 11.6253C50.5362 11.6241 50.5374 11.6226 50.5387 11.6214L50.7021 11.4579L50.698 11.4538C53.1281 8.8462 53.0747 4.74839 50.5345 2.20828C49.2769 0.950521 47.6047 0.257812 45.826 0.257812C44.1267 0.257812 42.5254 0.891458 41.289 2.04481L41.285 2.04083L41.1214 2.20436C41.1201 2.20573 41.1187 2.20688 41.1174 2.20825C41.1168 2.20887 41.1162 2.20959 41.1156 2.2103L1.99574 41.33L2.01097 41.3452C1.79231 41.4862 1.63389 41.7178 1.59585 41.9957L0.309314 51.3929C0.270148 51.6793 0.367218 51.9673 0.571544 52.1718C0.745998 52.3461 0.981533 52.4422 1.22494 52.4422C1.26657 52.4422 1.30847 52.4394 1.35037 52.4338L10.7471 51.1469C11.0252 51.109 11.2568 50.9504 11.3978 50.7317L11.413 50.747L50.5329 11.6273ZM45.826 2.10604C47.111 2.10604 48.319 2.60645 49.2275 3.5151C50.8798 5.16723 51.0768 7.73228 49.8184 9.60192L43.1402 2.924C43.9273 2.392 44.8548 2.10604 45.826 2.10604ZM41.285 4.65455L48.0883 11.4579L11.413 48.1332L8.85351 45.5738L38.2931 16.1347L36.5307 14.3726L7.09152 43.812L4.60952 41.33L41.285 4.65455ZM2.30554 50.4375L3.36503 42.6991L10.0437 49.3778L2.30554 50.4375Z" fill="#22242F"/>
<path d="M15.0893 23.566L16.7756 21.8797L3.28112 8.38514L8.78739 2.87873L11.3982 5.4898L9.50397 7.38379L10.9994 8.87916L12.8937 6.98529L14.4159 8.50736L12.5216 10.4015L14.0171 11.8967L15.9115 10.0029L17.4336 11.5252L14.6312 14.3269L16.127 15.8224L18.9291 13.0204L20.785 14.8762L18.8907 16.7708L20.3862 18.266L22.2805 16.3717L22.2818 16.3731L23.9681 14.6868L9.63041 0.349338C9.16474 -0.116446 8.40992 -0.116446 7.94425 0.349338L0.751704 7.54197C0.28589 8.00767 0.28589 8.76261 0.751704 9.22828L15.0893 23.566Z" fill="#22242F"/>
<path d="M52.8323 43.5812C52.8108 43.5596 52.7885 43.539 52.7658 43.5193L37.7618 28.5156L33.2733 33.0042L34.7657 34.4966L37.5679 31.6944L50.3005 44.4267L44.794 49.933L30.5691 35.7082L28.8828 37.3948L43.9508 52.4625C44.4164 52.9284 45.1713 52.9284 45.6371 52.4625L52.83 45.2701C52.8306 45.2691 52.8314 45.2686 52.8324 45.2676C53.2981 44.8021 53.2981 44.0469 52.8323 43.5812Z" fill="#22242F"/>
</svg>
