<svg width="45" height="54" viewBox="0 0 45 54" fill="none" xmlns="http://www.w3.org/2000/svg">
<path d="M41.2905 0.632813H3.34167C1.77474 0.632813 0.5 1.90756 0.5 3.47458V50.596C0.5 52.163 1.77474 53.4377 3.34167 53.4377H29.9858C30.4138 53.4377 30.7608 53.0908 30.7608 52.6627C30.7608 52.2346 30.4138 51.8876 29.9858 51.8876H3.34167C2.62942 51.8876 2.05001 51.3082 2.05001 50.596V3.47458C2.05001 2.76234 2.62942 2.18293 3.34167 2.18293H41.2904C42.0026 2.18293 42.5821 2.76234 42.5821 3.47458V50.596C42.5821 51.3082 42.0027 51.8876 41.2904 51.8876H33.0859C32.6579 51.8876 32.3108 52.2346 32.3108 52.6627C32.3108 53.0908 32.6579 53.4377 33.0859 53.4377H41.2904C42.8573 53.4377 44.1321 52.163 44.1321 50.596V3.47458C44.1321 1.90756 42.8574 0.632813 41.2905 0.632813Z" fill="#22242F"/>
<path d="M6.03078 49.12H38.8871C39.3151 49.12 39.6622 48.7731 39.6622 48.345V5.72818C39.6622 5.30007 39.3152 4.95312 38.8871 4.95312H16.66C16.232 4.95312 15.885 5.30007 15.885 5.72818C15.885 6.15629 16.232 6.50324 16.66 6.50324H38.1122V47.57H6.80574V41.0103H7.68094C8.10895 41.0103 8.45599 40.6634 8.45599 40.2353V32.7453C8.45599 32.3172 8.10895 31.9703 7.68094 31.9703H6.80574V22.1029H7.68094C8.10895 22.1029 8.45599 21.7559 8.45599 21.3278V13.8379C8.45599 13.4098 8.10895 13.0628 7.68094 13.0628H6.80574V6.50324H13.5599C13.9879 6.50324 14.335 6.15629 14.335 5.72818C14.335 5.30007 13.9879 4.95312 13.5599 4.95312H6.03078C5.60277 4.95312 5.25573 5.30007 5.25573 5.72818V13.0628H4.38053C3.95252 13.0628 3.60547 13.4098 3.60547 13.8379V21.3278C3.60547 21.7559 3.95241 22.1029 4.38053 22.1029H5.25573V31.9703H4.38053C3.95252 31.9703 3.60547 32.3172 3.60547 32.7453V40.2353C3.60547 40.6634 3.95241 41.0103 4.38053 41.0103H5.25573V48.345C5.25573 48.7731 5.60277 49.12 6.03078 49.12ZM5.15558 14.6129H6.90598V20.5529H5.15558V14.6129ZM5.15558 33.5204H6.90598V39.4603H5.15558V33.5204Z" fill="#22242F"/>
<path d="M24.2873 20.4471H23.2206L24.4702 18.4798C24.6997 18.1184 24.5928 17.6394 24.2316 17.41C23.8702 17.1805 23.3913 17.2873 23.1618 17.6486L21.156 20.8065C21.0044 21.0452 20.9948 21.3475 21.1309 21.5954C21.2671 21.8431 21.5274 21.9971 21.8102 21.9971H22.8768L21.6272 23.9643C21.3977 24.3257 21.5046 24.8046 21.866 25.0341C22.1731 25.2374 22.6877 25.1791 22.9357 24.7954L24.9414 21.6377C25.093 21.399 25.1026 21.0966 24.9665 20.8488C24.8304 20.6012 24.57 20.4471 24.2873 20.4471Z" fill="#22242F"/>
<path d="M32.663 24.7236L25.4353 12.5606C24.9884 11.8084 24.1993 11.3594 23.3244 11.3594C23.3243 11.3594 23.3244 11.3594 23.3243 11.3594C22.4495 11.3594 21.6603 11.8084 21.2134 12.5606L13.9856 24.7236C13.5288 25.4922 13.5201 26.4151 13.9623 27.1921C14.4045 27.9692 15.2023 28.4332 16.0964 28.4332H30.5519C31.4461 28.4332 32.2439 27.9692 32.686 27.1922C33.1285 26.4152 33.1198 25.4922 32.663 24.7236ZM31.3391 26.4256C31.2608 26.5633 31.0274 26.8832 30.5522 26.8832H16.0967C15.6215 26.8832 15.3881 26.5632 15.3097 26.4256C15.2314 26.288 15.0755 25.9238 15.3184 25.5153L22.5462 13.3522C22.7837 12.9525 23.1696 12.9093 23.3245 12.9093C23.4794 12.9093 23.8654 12.9525 24.1029 13.3522L31.3307 25.5153C31.5733 25.9239 31.4174 26.2881 31.3391 26.4256Z" fill="#22242F"/>
<path d="M31.5784 32.4492H15.1735C14.7455 32.4492 14.3984 32.7962 14.3984 33.2243C14.3984 33.6524 14.7455 33.9993 15.1735 33.9993H31.5784C32.0064 33.9993 32.3535 33.6524 32.3535 33.2243C32.3535 32.7962 32.0064 32.4492 31.5784 32.4492Z" fill="#22242F"/>
<path d="M31.5784 36.8594H15.1735C14.7455 36.8594 14.3984 37.2063 14.3984 37.6344C14.3984 38.0625 14.7455 38.4095 15.1735 38.4095H31.5784C32.0064 38.4095 32.3535 38.0625 32.3535 37.6344C32.3535 37.2063 32.0064 36.8594 31.5784 36.8594Z" fill="#22242F"/>
<path d="M31.5709 41.2695H21.3102C20.8822 41.2695 20.5352 41.6165 20.5352 42.0446C20.5352 42.4727 20.8821 42.8196 21.3102 42.8196H31.5709C31.9989 42.8196 32.3459 42.4727 32.3459 42.0446C32.3459 41.6165 31.9989 41.2695 31.5709 41.2695Z" fill="#22242F"/>
<path d="M15.1735 41.2695C14.7455 41.2695 14.3984 41.6165 14.3984 42.0446C14.3984 42.4727 14.7455 42.8196 15.1735 42.8196H18.2176C18.6456 42.8196 18.9927 42.4727 18.9927 42.0446C18.9927 41.6165 18.6456 41.2695 18.2176 41.2695H15.1735Z" fill="#22242F"/>
</svg>
