<svg width="56" height="56" viewBox="0 0 56 56" fill="none" xmlns="http://www.w3.org/2000/svg">
<path d="M24.503 14.0018C24.503 11.4282 22.4098 9.33528 19.8358 9.33528C17.2618 9.33528 15.1685 11.4282 15.1685 14.0018C15.1685 16.5753 17.2618 18.6682 19.8358 18.6682C22.4098 18.6682 24.503 16.5753 24.503 14.0018ZM19.8358 16.335C18.5476 16.335 17.5022 15.2897 17.5022 14.0018C17.5022 12.7138 18.5476 11.6685 19.8358 11.6685C21.1239 11.6685 22.1694 12.7138 22.1694 14.0018C22.1694 15.2897 21.1239 16.335 19.8358 16.335ZM9.00778 16.3047L9.55151 15.9827C9.40449 15.285 9.33215 14.6411 9.33215 13.9994C9.33215 13.3578 9.40216 12.7138 9.55384 12.0138L9.00778 11.6918C8.20268 11.2205 7.62861 10.4622 7.39524 9.55693C7.15955 8.64931 7.29256 7.70901 7.76629 6.90171C8.23768 6.09675 8.99611 5.52277 9.90155 5.28945C10.8093 5.04912 11.7498 5.18445 12.5595 5.66043L13.0799 5.96608C14.0297 5.17278 15.1359 4.55214 16.3377 4.13216V3.49985C16.3377 1.57027 17.9082 0 19.8381 0C21.768 0 23.3385 1.57027 23.3385 3.49985V4.13216C24.5404 4.55214 25.6442 5.17278 26.5963 5.96608L27.1167 5.66043C27.9264 5.18445 28.8646 5.04912 29.7747 5.28945C30.6801 5.5251 31.4385 6.09908 31.9123 6.90405C32.3837 7.70901 32.5167 8.64931 32.281 9.55693C32.0453 10.4622 31.4712 11.2205 30.6661 11.6942L30.1224 12.0138C30.2717 12.7138 30.3441 13.3578 30.3441 13.9994C30.3441 14.6411 30.2741 15.285 30.1247 15.9827L30.6661 16.3023C31.4735 16.7783 32.0476 17.5366 32.281 18.4419C32.5167 19.3495 32.3837 20.2898 31.9099 21.0971C31.4385 21.9021 30.6801 22.4761 29.7747 22.7094C28.8646 22.952 27.9264 22.8144 27.1167 22.3384L26.5963 22.0328C25.6465 22.8261 24.5404 23.4467 23.3385 23.8667V24.499C23.3385 25.143 22.8158 25.6656 22.1717 25.6656C21.5277 25.6656 21.0049 25.143 21.0049 24.499V23.001C21.0049 22.4691 21.3643 22.0048 21.88 21.8718C23.3245 21.4984 24.6174 20.7705 25.6232 19.7648C25.9965 19.3892 26.5823 19.3169 27.0397 19.5852L28.2998 20.3272C28.5682 20.4835 28.8786 20.5278 29.1843 20.4508C29.4876 20.3738 29.7373 20.1825 29.896 19.9142C30.0547 19.6459 30.099 19.3309 30.022 19.0299C29.945 18.7266 29.7537 18.4746 29.483 18.3136L28.1878 17.5553C27.7304 17.2846 27.5111 16.7386 27.6557 16.23C27.8961 15.3877 28.0058 14.6784 28.0058 14.0018C28.0058 13.3251 27.8938 12.6158 27.6557 11.7735C27.5111 11.2625 27.7257 10.7189 28.1855 10.4506L29.483 9.6876C29.7537 9.52894 29.945 9.27461 30.022 8.97363C30.099 8.67264 30.057 8.35765 29.8983 8.09166C29.7397 7.82101 29.4876 7.62968 29.1843 7.55269C28.8809 7.47569 28.5658 7.51769 28.2998 7.67635L27.0397 8.41832C26.5799 8.68664 25.9965 8.61431 25.6232 8.23866C24.6174 7.2307 23.3269 6.50506 21.88 6.13174C21.3643 5.99642 21.0049 5.5321 21.0049 5.00246V3.50452C21.0049 2.86288 20.4799 2.3379 19.8381 2.3379C19.1964 2.3379 18.6713 2.86288 18.6713 3.50452V5.00246C18.6713 5.53444 18.3119 5.99875 17.7962 6.13174C16.3517 6.50506 15.0589 7.23303 14.0531 8.23866C13.6797 8.61664 13.0963 8.68897 12.6366 8.41832L11.3764 7.67635C11.108 7.52002 10.7953 7.47336 10.492 7.55269C10.1886 7.62968 9.93889 7.82101 9.7802 8.08933C9.62152 8.35765 9.57718 8.67264 9.65419 8.97363C9.7312 9.27461 9.92255 9.5266 10.1909 9.68526L11.4907 10.4506C11.9481 10.7189 12.1652 11.2649 12.0205 11.7735C11.7801 12.6158 11.6704 13.3251 11.6704 14.0018C11.6704 14.6784 11.7825 15.3877 12.0205 16.23C12.1652 16.741 11.9481 17.2846 11.4884 17.5553L10.1909 18.3159C9.92255 18.4722 9.7312 18.7266 9.65419 19.0299C9.57718 19.3309 9.61918 19.6458 9.77787 19.9118C9.93656 20.1825 10.1886 20.3738 10.492 20.4508C10.8 20.5301 11.1127 20.4858 11.3764 20.3272L12.6366 19.5852C13.0916 19.3145 13.6773 19.3869 14.0531 19.7648C15.0589 20.7728 16.3493 21.4984 17.7962 21.8718C18.3119 22.0071 18.6713 22.4714 18.6713 23.001V24.499C18.6713 25.143 18.1486 25.6656 17.5045 25.6656C16.8604 25.6656 16.3377 25.143 16.3377 24.499V23.8667C15.1359 23.4467 14.0321 22.8261 13.0799 22.0328L12.5595 22.3384C11.7498 22.8144 10.8093 22.952 9.90155 22.7094C8.99611 22.4737 8.23768 21.8998 7.76396 21.0948C7.29256 20.2898 7.15955 19.3495 7.39524 18.4419C7.63094 17.5366 8.20501 16.7783 9.00778 16.3047ZM54.0933 22.5274C52.9335 21.4751 51.419 20.9338 49.8718 21.0085C48.3083 21.0808 46.8661 21.7574 45.8136 22.9147L37.1046 32.488C36.3718 29.9028 33.9892 28.0012 31.1702 28.0012H8.16767C3.66378 28.0012 0 31.6643 0 36.1675V47.8337C0 52.3368 3.66378 56 8.16767 56H22.0877C28.4025 56 34.4349 53.2958 38.6401 48.5803L54.5227 30.7544C56.6486 28.3722 56.4549 24.6786 54.0933 22.5274ZM52.7795 29.2005L36.8969 47.0264C33.1351 51.2472 27.7351 53.6668 22.0854 53.6668H8.16767C4.94961 53.6668 2.33362 51.0512 2.33362 47.8337V36.1675C2.33362 32.95 4.94961 30.3344 8.16767 30.3344H31.1702C33.2821 30.3344 35.0043 32.054 35.0043 34.1679C35.0043 36.0625 33.5925 37.6934 31.7419 37.9571L17.3645 39.6767C16.7251 39.7513 16.2677 40.3323 16.3447 40.974C16.4194 41.6133 17.0028 42.0869 17.6422 41.9936L32.0453 40.2717C34.4302 39.931 36.3531 38.2207 37.0532 36.0158L47.5452 24.492C48.1776 23.7943 49.0457 23.386 49.9862 23.344C50.9243 23.2997 51.8297 23.624 52.5251 24.2587C53.9463 25.5559 54.0607 27.7748 52.7818 29.2075L52.7795 29.2005Z" fill="#22242F"/>
</svg>
