<svg width="206" height="105" viewBox="0 0 206 105" fill="none" xmlns="http://www.w3.org/2000/svg">
<rect x="0.35" y="0.35" width="205.3" height="104.3" rx="13.65" stroke="#A9A9A9" stroke-width="0.7" stroke-dasharray="4 4"/>
<path d="M121.054 42.7578L116.845 43.8121L107.703 46.0979V50.6719L116.848 48.3853L121.054 47.3326V42.7578Z" fill="#F05D3E"/>
<path d="M116.848 37.4816L107.703 39.769V44.343L116.847 42.0564L121.054 41.0037V36.4297L116.848 37.4816Z" fill="#F05D3E"/>
<path d="M121.054 30.1016L116.846 31.1543L107.703 33.4409V38.0149L116.848 35.7283L121.054 34.6755V30.1016Z" fill="#F05D3E"/>
<path d="M125.981 38.0137V33.4397L116.836 31.1523V35.7271L121.762 36.9586V38.7129L116.836 37.4814V42.0554L125.981 44.3428V39.7688V39.768V38.0137Z" fill="#213469"/>
<path d="M116.836 43.8105V48.3877L116.855 48.3932L121.033 49.4341L121.056 44.8649L116.879 43.82L116.836 43.8105Z" fill="#213469"/>
<path d="M123.609 59.2899C123.5 59.0387 123.335 58.8143 123.128 58.6326C122.908 58.4418 122.65 58.2982 122.37 58.2111C122.048 58.1096 121.711 58.0602 121.373 58.0647H120.836C120.186 58.7876 119.535 59.5114 118.883 60.2358V64.9522H119.984V62.2852H121.25C121.583 62.2874 121.915 62.241 122.234 62.1475C122.525 62.0632 122.797 61.9259 123.037 61.7426C123.267 61.5645 123.452 61.3366 123.579 61.0766C123.717 60.7879 123.785 60.4718 123.779 60.1528C123.783 59.8567 123.726 59.5629 123.609 59.2899ZM122.282 60.9904C122.038 61.196 121.705 61.2989 121.282 61.2989H119.988V59.0502H121.282C121.698 59.0502 122.03 59.1441 122.278 59.3318C122.526 59.5195 122.65 59.8003 122.65 60.1742C122.656 60.3288 122.626 60.4827 122.562 60.6242C122.498 60.7657 122.403 60.8909 122.282 60.9904Z" fill="#213469"/>
<path d="M129.018 61.4585C128.764 62.0513 128.283 62.521 127.678 62.7652C127.029 63.0251 126.303 63.0268 125.653 62.7699C125.355 62.6505 125.084 62.4744 124.856 62.2517C124.628 62.0289 124.446 61.764 124.322 61.472C124.194 61.1717 124.13 60.8487 124.133 60.5229C124.131 60.1947 124.197 59.8696 124.326 59.5674C124.451 59.2752 124.632 59.0096 124.859 58.7852C125.089 58.5595 125.362 58.3799 125.662 58.256C125.983 58.1238 126.328 58.0574 126.676 58.0607C127.025 58.0572 127.37 58.1223 127.692 58.2521C127.992 58.3733 128.265 58.5515 128.495 58.7765C128.721 58.999 128.9 59.2632 129.022 59.554C129.149 59.8546 129.214 60.1774 129.212 60.5031C129.215 60.8314 129.149 61.1567 129.018 61.4585ZM128.007 59.9391C127.938 59.7607 127.837 59.5965 127.707 59.4551C127.578 59.3159 127.423 59.204 127.249 59.1261C126.978 59.004 126.674 58.9696 126.382 59.0278C126.09 59.0861 125.824 59.234 125.622 59.4504C125.495 59.5882 125.398 59.7495 125.335 59.9249C125.269 60.112 125.236 60.3089 125.237 60.507C125.236 60.7088 125.272 60.9091 125.344 61.0979C125.411 61.2772 125.513 61.442 125.644 61.5827C125.773 61.7194 125.929 61.8295 126.102 61.907C126.283 61.988 126.48 62.0291 126.68 62.0272C126.885 62.0303 127.089 61.9893 127.276 61.907C127.448 61.8305 127.602 61.7201 127.729 61.5827C127.855 61.4447 127.953 61.2834 128.016 61.1082C128.082 60.9212 128.116 60.7242 128.114 60.526C128.116 60.3255 128.079 60.1266 128.007 59.9391Z" fill="#213469"/>
<path d="M134.453 61.3795L135.427 58.1627H136.519L134.958 62.8909H133.984L132.919 59.6821L131.845 62.8909H130.871L129.328 58.1627H130.447L131.404 61.3795L132.459 58.1445H133.388L134.453 61.3795Z" fill="#213469"/>
<path d="M138.211 61.7733C138.464 61.9802 138.785 62.0893 139.114 62.0802C139.356 62.086 139.596 62.0374 139.817 61.9378C140.034 61.8305 140.232 61.6895 140.404 61.5202L141.046 62.0802C140.82 62.3449 140.542 62.5624 140.23 62.72C139.877 62.887 139.488 62.9684 139.097 62.9573C138.767 62.9603 138.44 62.8999 138.133 62.7794C137.841 62.6666 137.576 62.4961 137.353 62.2785C137.13 62.0609 136.955 61.8007 136.838 61.5139C136.708 61.1963 136.644 60.8565 136.649 60.5141C136.646 60.1901 136.705 59.8683 136.82 59.565C136.929 59.2779 137.093 59.0139 137.302 58.7875C137.51 58.5651 137.759 58.3852 138.038 58.2584C138.332 58.1259 138.652 58.0592 138.975 58.063C139.319 58.0557 139.66 58.1255 139.973 58.2671C140.249 58.3971 140.493 58.5862 140.686 58.8207C140.88 59.0609 141.025 59.3356 141.113 59.6299C141.211 59.9439 141.259 60.2705 141.258 60.5988C141.258 60.6462 141.258 60.6937 141.254 60.7403C141.25 60.787 141.246 60.8384 141.24 60.8914H137.74C137.807 61.2753 137.964 61.5692 138.211 61.7733ZM140.178 60.178C140.161 60.0122 140.122 59.8494 140.061 59.6939C140.006 59.55 139.924 59.4174 139.82 59.3032C139.717 59.1929 139.593 59.1036 139.455 59.0406C139.303 58.9737 139.139 58.9405 138.973 58.9433C138.817 58.9389 138.662 58.9671 138.519 59.026C138.375 59.0849 138.245 59.1732 138.139 59.285C137.911 59.5321 137.77 59.8454 137.737 60.178H140.178Z" fill="#213469"/>
<path d="M143.101 62.8576H142V58.1618H143.101V59.2193C143.236 58.8845 143.457 58.5903 143.743 58.3658C144.02 58.1523 144.368 58.0545 144.787 58.0724V59.2106H144.723C144.498 59.2074 144.275 59.2466 144.065 59.326C143.869 59.4012 143.693 59.5197 143.55 59.6725C143.398 59.8407 143.285 60.0392 143.217 60.2546C143.134 60.5177 143.095 60.7922 143.1 61.0677L143.101 62.8576Z" fill="#213469"/>
<path d="M93.6727 57.7285H90.1007V59.3285H93.2673V60.3148H90.1007V61.9758H93.7137V62.9621H89V56.7422H93.6727V57.7285Z" fill="#213469"/>
<path d="M94.6172 57.7416V62.9617H95.7187V56.5156C95.3505 56.9253 94.9833 57.334 94.6172 57.7416Z" fill="#213469"/>
<path d="M98.0853 61.7753C98.3382 61.9817 98.6587 62.0905 98.9869 62.0814C99.2295 62.0875 99.4703 62.0391 99.6911 61.9398C99.9076 61.832 100.105 61.691 100.277 61.5222L100.919 62.0814C100.693 62.3463 100.416 62.5639 100.103 62.7213C99.7504 62.8887 99.3621 62.9701 98.9709 62.9585C98.641 62.9614 98.3138 62.901 98.0074 62.7806C97.7156 62.6675 97.4503 62.497 97.2278 62.2794C97.0052 62.0618 96.8301 61.8017 96.7132 61.5151C96.5831 61.1976 96.5187 60.8577 96.5237 60.5153C96.5217 60.1914 96.5796 59.8697 96.6947 59.5662C96.8033 59.2791 96.9669 59.0151 97.1765 58.7887C97.3839 58.5667 97.6338 58.3871 97.9119 58.2604C98.2062 58.1276 98.5268 58.0608 98.8504 58.065C99.1945 58.0573 99.5359 58.1271 99.8484 58.2691C100.125 58.3985 100.369 58.5878 100.561 58.8227C100.756 59.0626 100.901 59.3371 100.99 59.6311C101.087 59.9451 101.136 60.2717 101.135 60.6C101.135 60.6474 101.133 60.6949 101.13 60.7423C101.13 60.7898 101.123 60.8396 101.116 60.8934H97.6156C97.6823 61.2746 97.838 61.5704 98.0853 61.7753ZM100.052 60.18C100.035 60.013 99.9959 59.8491 99.9343 59.6928C99.8791 59.549 99.7975 59.4166 99.6935 59.302C99.5902 59.1921 99.4661 59.1032 99.3282 59.0402C99.1769 58.9729 99.0124 58.9394 98.8464 58.9422C98.6906 58.9376 98.5355 58.9658 98.3915 59.0249C98.2476 59.0839 98.118 59.1725 98.0114 59.2846C97.7832 59.5317 97.6423 59.845 97.61 60.1776L100.052 60.18Z" fill="#213469"/>
<path d="M105.219 62.7168C104.919 62.8798 104.537 62.9612 104.074 62.9612C103.736 62.9645 103.401 62.8993 103.09 62.7698C102.797 62.6474 102.53 62.4692 102.307 62.2454C102.08 62.0185 101.901 61.7498 101.781 61.4548C101.66 61.1597 101.599 60.8441 101.602 60.5259C101.598 59.8794 101.851 59.2572 102.308 58.793C102.539 58.5597 102.815 58.3749 103.12 58.2497C103.426 58.1245 103.754 58.0615 104.084 58.0646C104.535 58.0646 104.91 58.1384 105.208 58.286C105.503 58.4323 105.768 58.6313 105.989 58.8729L105.312 59.5926C105.153 59.4285 104.973 59.2864 104.775 59.1703C104.561 59.0551 104.32 58.9986 104.076 59.0066C103.886 59.0046 103.698 59.0454 103.526 59.126C103.361 59.2037 103.213 59.3141 103.093 59.4503C102.97 59.5905 102.874 59.7512 102.808 59.9248C102.738 60.1111 102.703 60.3083 102.705 60.507C102.703 60.71 102.738 60.9117 102.808 61.1025C102.874 61.2795 102.973 61.4423 103.101 61.5818C103.228 61.7186 103.382 61.8288 103.553 61.9061C103.752 61.9923 103.969 62.0331 104.187 62.0254C104.405 62.0178 104.619 61.9619 104.812 61.8618C105.015 61.7463 105.202 61.6042 105.366 61.4395L106.025 62.0793C105.796 62.3363 105.523 62.552 105.219 62.7168Z" fill="#213469"/>
<path d="M109.255 59.1067V58.1924H107.97V56.9023H107.952C107.591 57.3026 107.23 57.7033 106.87 58.1046V58.1924H106.266V59.1083H106.87V61.5855C106.864 61.8075 106.898 62.0288 106.969 62.2396C107.028 62.4017 107.127 62.547 107.256 62.6627C107.384 62.7713 107.535 62.8502 107.698 62.8937C107.878 62.9428 108.063 62.967 108.25 62.9657C108.432 62.9679 108.614 62.9471 108.791 62.904C108.945 62.8625 109.094 62.8027 109.233 62.726V61.8449C109.023 61.9491 108.792 62.0033 108.557 62.0031C108.4 62.013 108.246 61.9638 108.124 61.8655C108.021 61.7737 107.97 61.6226 107.97 61.4146V59.1067H109.255Z" fill="#213469"/>
<path d="M111.109 62.9625H110.008V58.2699H111.109V59.3274C111.244 58.9927 111.465 58.6985 111.751 58.474C112.027 58.2631 112.375 58.1655 112.795 58.1813V59.3187H112.732C112.507 59.316 112.283 59.3552 112.073 59.4342C111.877 59.5094 111.701 59.6279 111.559 59.7806C111.406 59.9486 111.292 60.1472 111.225 60.3627C111.143 60.626 111.103 60.9004 111.108 61.1758L111.109 62.9625Z" fill="#213469"/>
<path d="M116.633 58.6207C116.29 58.2738 115.764 58.1003 115.053 58.1003C114.716 58.0942 114.38 58.1303 114.052 58.2078C113.773 58.2791 113.502 58.3741 113.24 58.4918L113.538 59.3547C113.747 59.2677 113.961 59.1961 114.181 59.1404C114.417 59.0846 114.66 59.0581 114.903 59.0613C115.282 59.0613 115.573 59.1472 115.774 59.3191C115.976 59.491 116.077 59.7399 116.076 60.0657V60.182C115.652 60.0418 115.207 59.9751 114.759 59.9851C114.499 59.9833 114.239 60.0147 113.987 60.0784C113.767 60.1338 113.559 60.2287 113.374 60.3584C113.204 60.4829 113.066 60.6456 112.972 60.833C112.872 61.0409 112.823 61.2689 112.829 61.4989V61.5124C112.823 61.7295 112.871 61.9447 112.968 62.1396C113.057 62.3151 113.182 62.4699 113.337 62.5936C113.496 62.7183 113.679 62.8118 113.874 62.8688C114.085 62.9317 114.304 62.9632 114.524 62.9621C114.842 62.9716 115.158 62.9046 115.444 62.7668C115.681 62.6483 115.892 62.4855 116.065 62.2875C116.418 62.5959 116.771 62.9044 117.126 63.2129C117.133 62.1699 117.14 61.1259 117.147 60.0808C117.147 59.4533 116.975 58.9666 116.633 58.6207ZM116.091 61.1667C116.093 61.3073 116.06 61.4463 115.996 61.5717C115.932 61.6936 115.842 61.8 115.731 61.8833C115.609 61.9714 115.474 62.0387 115.33 62.0826C115.167 62.1311 114.998 62.1549 114.829 62.153C114.597 62.1603 114.369 62.0988 114.174 61.9766C114.089 61.9201 114.019 61.8428 113.973 61.7522C113.927 61.6616 113.905 61.5608 113.909 61.4594V61.4428C113.904 61.3329 113.928 61.2236 113.979 61.1256C114.029 61.0275 114.105 60.9439 114.197 60.8828C114.39 60.752 114.658 60.6869 115 60.6874C115.201 60.6864 115.402 60.7042 115.6 60.7404C115.768 60.77 115.932 60.8147 116.091 60.8741L116.091 61.1667Z" fill="#213469"/>
<path d="M98.2294 67.0727H95.1965V68.4284H97.8799V69.2668H95.1965V70.676H98.2652V71.513H94.2656V66.2363H98.2294V67.0727Z" fill="#213469"/>
<path d="M100.207 71.5141H99.2734V67.534L100.207 67.1504V68.1583C100.272 68.0624 100.345 67.9718 100.425 67.8872C100.506 67.8011 100.599 67.7257 100.7 67.6628C100.807 67.5958 100.922 67.5434 101.044 67.5069C101.181 67.4669 101.324 67.4475 101.468 67.4493C101.926 67.4493 102.28 67.5876 102.528 67.8641C102.776 68.1407 102.901 68.5126 102.902 68.9798V71.5127H101.967V69.2577C101.967 68.9473 101.892 68.7073 101.743 68.5399C101.594 68.3725 101.383 68.2877 101.11 68.2877C100.989 68.2832 100.868 68.304 100.755 68.3487C100.643 68.3935 100.542 68.4612 100.458 68.5473C100.291 68.72 100.207 68.9617 100.207 69.2726V71.5141Z" fill="#213469"/>
<path d="M107.432 72.2437C107.055 72.5704 106.519 72.7337 105.825 72.7337C105.19 72.744 104.565 72.5797 104.019 72.2593L104.363 71.5733C104.574 71.7027 104.8 71.8065 105.036 71.8824C105.283 71.9597 105.542 71.9979 105.801 71.9956C106.214 71.9956 106.53 71.8921 106.751 71.6852C106.971 71.4782 107.08 71.1728 107.08 70.7688V70.4577C106.918 70.6697 106.718 70.8505 106.49 70.9911C106.237 71.1347 105.948 71.2051 105.656 71.1945C105.421 71.1952 105.187 71.1529 104.968 71.0697C104.75 70.9877 104.551 70.8635 104.382 70.7044C104.207 70.5373 104.068 70.3372 103.973 70.1161C103.769 69.6076 103.769 69.0419 103.973 68.5334C104.068 68.3124 104.208 68.1124 104.382 67.9451C104.552 67.7852 104.753 67.6599 104.972 67.5763C105.191 67.491 105.425 67.4473 105.66 67.4475C106.002 67.4475 106.284 67.5153 106.506 67.6509C106.721 67.7801 106.914 67.9434 107.076 68.1342V67.5323L108.002 67.0449V70.6983C107.999 71.4019 107.809 71.917 107.432 72.2437ZM106.992 68.873C106.932 68.7409 106.844 68.6225 106.736 68.5253C106.625 68.4282 106.497 68.3531 106.357 68.3043C106.211 68.2519 106.057 68.2253 105.902 68.2257C105.748 68.2242 105.595 68.2508 105.45 68.3043C105.316 68.3544 105.193 68.4294 105.087 68.5253C104.981 68.6214 104.898 68.7389 104.842 68.8696C104.782 69.0118 104.752 69.1648 104.754 69.319C104.752 69.4732 104.783 69.6262 104.845 69.7677C104.904 69.8981 104.987 70.0164 105.09 70.1161C105.194 70.2149 105.318 70.2913 105.454 70.3404C105.597 70.3935 105.749 70.4202 105.902 70.419C106.057 70.4197 106.211 70.3931 106.357 70.3404C106.497 70.2914 106.626 70.2151 106.736 70.1161C106.843 70.0186 106.93 69.9017 106.992 69.7717C107.057 69.6322 107.09 69.48 107.088 69.3264C107.089 69.1702 107.057 69.0156 106.992 68.873Z" fill="#213469"/>
<path d="M109.172 66.9216L110.174 66.0547V66.9216H109.172ZM109.21 71.5124V67.5323H110.143V71.5124H109.21Z" fill="#213469"/>
<path d="M112.27 71.5119H111.336V67.7745L112.27 67.2871V68.1588C112.335 68.063 112.408 67.9724 112.487 67.8876C112.656 67.7097 112.87 67.5786 113.106 67.5074C113.244 67.4675 113.387 67.4481 113.53 67.4498C113.989 67.4498 114.342 67.5881 114.59 67.8646C114.839 68.1411 114.963 68.513 114.965 68.9803V71.5132H114.031V69.2555C114.031 68.945 113.957 68.7051 113.807 68.5377C113.658 68.3702 113.447 68.2855 113.174 68.2855C113.053 68.2811 112.932 68.3019 112.819 68.3467C112.707 68.3914 112.605 68.459 112.521 68.5451C112.354 68.7177 112.271 68.9595 112.271 69.2704L112.27 71.5119Z" fill="#213469"/>
<path d="M117.181 70.598C117.396 70.7732 117.668 70.8655 117.946 70.8576C118.152 70.8627 118.356 70.8214 118.543 70.737C118.727 70.6458 118.895 70.5263 119.041 70.3832L119.584 70.8576C119.392 71.082 119.157 71.2664 118.892 71.3999C118.592 71.5426 118.261 71.6124 117.928 71.6032C117.649 71.6054 117.373 71.5543 117.114 71.4527C116.865 71.3572 116.64 71.2125 116.45 71.0278C116.261 70.843 116.112 70.622 116.013 70.3784C115.902 70.1091 115.848 69.8209 115.852 69.5305C115.85 69.2551 115.899 68.9817 115.997 68.7239C116.09 68.48 116.231 68.2561 116.41 68.0644C116.586 67.8758 116.798 67.7234 117.034 67.6157C117.283 67.503 117.555 67.4463 117.829 67.4496C118.121 67.4437 118.41 67.503 118.675 67.6231C118.909 67.7329 119.116 67.8927 119.28 68.0908C119.445 68.2942 119.568 68.5271 119.643 68.7768C119.725 69.043 119.767 69.3199 119.765 69.5983C119.765 69.6389 119.765 69.6789 119.765 69.7189C119.765 69.7589 119.758 69.8016 119.754 69.847H116.785C116.84 70.1742 116.972 70.4245 117.181 70.598ZM118.85 69.2424C118.835 69.1017 118.802 68.9636 118.75 68.8317C118.703 68.7095 118.633 68.5971 118.543 68.5002C118.456 68.4069 118.35 68.3314 118.233 68.2779C118.104 68.22 117.962 68.1915 117.82 68.1945C117.688 68.1908 117.557 68.2148 117.435 68.2649C117.313 68.315 117.203 68.3902 117.113 68.4853C116.918 68.6942 116.797 68.9599 116.769 69.2424H118.85Z" fill="#213469"/>
<path d="M121.806 70.598C122.021 70.7733 122.293 70.8656 122.572 70.8576C122.777 70.8626 122.981 70.8214 123.168 70.737C123.352 70.6461 123.52 70.5267 123.666 70.3832L124.209 70.8576C124.017 71.082 123.782 71.2664 123.517 71.3999C123.217 71.5427 122.886 71.6125 122.553 71.6032C122.274 71.6054 121.998 71.5543 121.739 71.4527C121.49 71.3572 121.265 71.2125 121.075 71.0278C120.886 70.843 120.737 70.622 120.638 70.3784C120.527 70.1092 120.473 69.8209 120.477 69.5305C120.475 69.2551 120.524 68.9817 120.623 68.7239C120.716 68.4798 120.856 68.2558 121.035 68.0644C121.211 67.8757 121.423 67.7232 121.659 67.6157C121.908 67.5031 122.18 67.4463 122.455 67.4496C122.746 67.4437 123.036 67.503 123.3 67.6231C123.535 67.7328 123.741 67.8926 123.905 68.0908C124.07 68.2942 124.193 68.5271 124.268 68.7768C124.35 69.043 124.392 69.3199 124.39 69.5983C124.39 69.6389 124.39 69.6789 124.39 69.7189C124.39 69.7589 124.384 69.8016 124.379 69.847H121.41C121.465 70.1742 121.597 70.4245 121.806 70.598ZM123.475 69.2424C123.46 69.1017 123.427 68.9635 123.375 68.8317C123.328 68.7095 123.258 68.5971 123.168 68.5002C123.081 68.4069 122.976 68.3314 122.859 68.2779C122.729 68.2201 122.588 68.1916 122.446 68.1945C122.314 68.1907 122.182 68.2147 122.06 68.2648C121.938 68.3149 121.828 68.3901 121.738 68.4853C121.543 68.6942 121.422 68.9599 121.394 69.2424H123.475Z" fill="#213469"/>
<path d="M126.262 71.5103H125.328V67.5302H126.262V68.4269C126.375 68.1431 126.563 67.8937 126.805 67.7037C127.039 67.5227 127.336 67.4394 127.693 67.455V68.4195H127.639C127.448 68.417 127.259 68.4504 127.081 68.5178C126.914 68.5815 126.765 68.6819 126.644 68.8113C126.515 68.9539 126.419 69.1225 126.362 69.3054C126.291 69.5287 126.258 69.7616 126.262 69.9954V71.5103Z" fill="#213469"/>
<path d="M128.5 66.9216L129.502 66.0547V66.9216H128.5ZM128.539 71.5124V67.5323H129.472V71.5124H128.539Z" fill="#213469"/>
<path d="M131.621 71.5132H130.688V68.0503L131.621 67.3379V68.1574C131.686 68.0615 131.759 67.9708 131.839 67.8862C131.92 67.8001 132.013 67.7247 132.114 67.6619C132.221 67.5949 132.337 67.5425 132.458 67.506C132.595 67.466 132.738 67.4465 132.882 67.4484C133.34 67.4484 133.694 67.5866 133.942 67.8632C134.19 68.1397 134.315 68.5116 134.316 68.9789V71.5118H133.383V69.2568C133.383 68.9463 133.308 68.7064 133.158 68.539C133.009 68.3715 132.798 68.2868 132.525 68.2868C132.404 68.2823 132.283 68.3031 132.171 68.3478C132.058 68.3925 131.957 68.4602 131.873 68.5464C131.706 68.719 131.622 68.9608 131.623 69.2717L131.621 71.5132Z" fill="#213469"/>
<path d="M138.822 72.2453C138.445 72.572 137.91 72.7353 137.216 72.7353C136.581 72.7456 135.955 72.5813 135.41 72.2609L135.754 71.5749C135.965 71.7043 136.191 71.8081 136.427 71.884C136.674 71.9613 136.932 71.9995 137.192 71.9972C137.605 71.9972 137.921 71.8937 138.141 71.6868C138.361 71.4798 138.471 71.1744 138.47 70.7704V70.4593C138.309 70.6713 138.109 70.8521 137.881 70.9927C137.627 71.1363 137.338 71.2067 137.047 71.1961C136.811 71.1968 136.578 71.1545 136.359 71.0713C136.141 70.9893 135.941 70.8651 135.773 70.706C135.598 70.5389 135.459 70.3388 135.364 70.1177C135.16 69.6092 135.16 69.0435 135.364 68.535C135.459 68.314 135.598 68.114 135.773 67.9466C135.943 67.7868 136.143 67.6615 136.363 67.5779C136.582 67.4926 136.815 67.4489 137.051 67.4491C137.392 67.4491 137.674 67.5169 137.896 67.6525C138.112 67.7817 138.305 67.945 138.467 68.1358V67.5339L139.392 66.8906V70.6999C139.39 71.4035 139.2 71.9186 138.822 72.2453ZM138.383 68.8746C138.322 68.7425 138.235 68.6241 138.126 68.5268C138.016 68.4298 137.887 68.3547 137.748 68.3059C137.602 68.2535 137.448 68.2269 137.292 68.2273C137.138 68.2258 136.985 68.2524 136.841 68.3059C136.707 68.356 136.583 68.431 136.478 68.5268C136.372 68.623 136.288 68.7405 136.233 68.8712C136.172 69.0134 136.142 69.1664 136.145 69.3206C136.142 69.4748 136.174 69.6278 136.236 69.7693C136.294 69.8997 136.378 70.018 136.481 70.1177C136.585 70.2165 136.709 70.2929 136.844 70.342C136.987 70.3951 137.139 70.4218 137.292 70.4206C137.448 70.4213 137.602 70.3947 137.748 70.342C137.888 70.293 138.017 70.2167 138.126 70.1177C138.233 70.0202 138.32 69.9033 138.383 69.7733C138.448 69.6338 138.481 69.4816 138.478 69.328C138.48 69.1718 138.447 69.0172 138.383 68.8746Z" fill="#213469"/>
</svg>
