<svg width="146" height="154" viewBox="0 0 146 154" fill="none" xmlns="http://www.w3.org/2000/svg">
<path d="M111.964 153.65V154H107.893V153.65H103.821V154H99.75V153.65H95.6786V154H91.6071V153.65H87.5357V154H83.4643V153.65H79.3929V154H75.3214V153.65H71.25V154H67.1786V153.65H63.1072V154H59.0357V153.65H54.9643V154H50.8929V153.65H46.8214V154H42.75V153.65H38.6786V154H34.6071V153.65H30.5357V154H26.4643V153.65H22.3929V154H18.3214V153.65H14.25V154H10.1786V153.65H6.10714V154H2.03571V153.65H0.35V151.974H0V147.921H0.35V143.868H0V139.816H0.35V135.763H0V131.71H0.35V127.658H0V123.605H0.35V119.553H0V115.5H0.35V111.447H0V107.395H0.35V103.342H0V99.2894H0.35V95.2368H0V91.1842H0.35V87.1316H0V83.0789H0.35V79.0263H0V74.9737H0.35V70.9211H0V66.8684H0.35V62.8158H0V58.7632H0.35V54.7105H0V50.6579H0.35V46.6053H0V42.5526H0.35V38.5H0V34.4474H0.35V30.3947H0V26.3421H0.35V22.2895H0V18.2368H0.35V14.1842H0V10.1316H0.35V6.07895H0V2.02632H0.35V0.35H2.03573V0H6.10715V0.35H10.1786V0H14.25V0.35H18.3214V0H22.3929V0.35H26.4643V0H30.5357V0.35H34.6071V0H38.6786V0.35H42.75V0H46.8214V0.35H50.8928V0H54.9643V0.35H59.0357V0H63.1071V0.35H67.1786V0H71.25V0.35H75.3214V0H79.3929V0.35H83.4643V0H87.5357V0.35H91.6071V0H95.6786V0.35H99.75V0H103.821V0.35H107.893V0H111.964V0.35H114C114.604 0.35 115.197 0.35 115.777 0.350301L115.777 0.000301352C117.01 0.00094131 118.189 0.0029403 119.318 0.00918442L119.316 0.359179C120.557 0.366039 121.735 0.378021 122.857 0.398946L122.863 0.0490065C124.115 0.0723581 125.295 0.106837 126.411 0.157744L126.395 0.50738C127.649 0.564646 128.819 0.642684 129.911 0.748932L129.945 0.400576C131.212 0.523819 132.378 0.684979 133.456 0.895723L133.389 1.23922C134.623 1.48067 135.733 1.78687 136.74 2.17435L136.865 1.84773C138.021 2.29255 139.048 2.84446 139.973 3.52923L139.764 3.81053C140.223 4.14998 140.656 4.52319 141.066 4.93378C141.477 5.34437 141.85 5.77717 142.189 6.23567L142.471 6.02741C143.156 6.95236 143.707 7.97948 144.152 9.13456L143.826 9.26034C144.213 10.2665 144.519 11.3767 144.761 12.6113L145.104 12.5441C145.315 13.6216 145.476 14.7881 145.599 16.0551L145.251 16.089C145.357 17.1814 145.435 18.3507 145.493 19.6053L145.842 19.5893C145.893 20.7046 145.928 21.8853 145.951 23.1367L145.601 23.1433C145.622 24.2647 145.634 25.4435 145.641 26.6838L145.991 26.6818C145.997 27.8109 145.999 28.9903 146 30.223L145.65 30.2231C145.65 30.8035 145.65 31.3956 145.65 32V34.0454H146V38.1364H145.65V42.2273H146V46.3182H145.65V50.4091H146V54.5H145.65V58.5909H146V62.6818H145.65V66.7727H146V70.8636H145.65V74.9546H146V79.0455H145.65V83.1364H146V87.2273H145.65V91.3182H146V95.4091H145.65V99.5H146V103.591H145.65V107.682H146V111.773H145.65V115.864H146V119.955H145.65V122C145.65 122.076 145.65 122.151 145.65 122.226C145.65 122.226 145.65 122.226 145.65 122.226C145.65 122.752 145.65 123.269 145.65 123.777L146 123.777C145.999 125.01 145.997 126.189 145.991 127.318L145.641 127.316C145.634 128.557 145.622 129.735 145.601 130.857L145.951 130.863C145.928 132.115 145.893 133.295 145.842 134.411L145.493 134.395C145.435 135.649 145.357 136.819 145.251 137.911L145.599 137.945C145.476 139.212 145.315 140.378 145.104 141.456L144.761 141.389C144.519 142.623 144.213 143.733 143.826 144.74L144.152 144.865C143.707 146.021 143.156 147.048 142.471 147.973L142.189 147.764C141.85 148.223 141.477 148.656 141.066 149.066C140.656 149.477 140.223 149.85 139.764 150.189L139.973 150.471C139.048 151.156 138.021 151.707 136.865 152.152L136.74 151.826C135.733 152.213 134.623 152.519 133.389 152.761L133.456 153.104C132.378 153.315 131.212 153.476 129.945 153.599L129.911 153.251C128.819 153.357 127.649 153.435 126.395 153.493L126.411 153.842C125.295 153.893 124.115 153.928 122.863 153.951L122.857 153.601C121.735 153.622 120.557 153.634 119.316 153.641L119.318 153.991C118.189 153.997 117.01 153.999 115.777 154L115.777 153.65C115.552 153.65 115.326 153.65 115.098 153.65C115.065 153.65 115.033 153.65 115 153.65C114.732 153.65 114.462 153.65 114.189 153.65C114.126 153.65 114.063 153.65 114 153.65H111.964Z" stroke="#A9A9A9" stroke-width="0.7" stroke-dasharray="4 4"/>
<path d="M79.3522 63.0059L73.1324 64.594L59.625 68.0371V74.9269L73.1371 71.4826L79.3522 69.8969V63.0059Z" fill="#F05D3E"/>
<path d="M73.1371 55.0572L59.625 58.5027V65.3925L73.136 61.9482L79.3522 60.3625V53.4727L73.1371 55.0572Z" fill="#F05D3E"/>
<path d="M79.3522 43.9395L73.1348 45.5252L59.625 48.9695V55.8593L73.1371 52.415L79.3522 50.8293V43.9395Z" fill="#F05D3E"/>
<path d="M86.6293 55.8588V48.9689L73.1172 45.5234V52.4144L80.3952 54.2694V56.9119L73.1172 55.057V61.9468L86.6293 65.3923V58.5025V58.5013V55.8588Z" fill="#213469"/>
<path d="M73.1172 64.5898V71.4844L73.1457 71.4928L79.3181 73.0606L79.3525 66.178L73.1812 64.6041L73.1172 64.5898Z" fill="#213469"/>
<path d="M83.1557 87.9084C82.9936 87.53 82.7506 87.192 82.4439 86.9183C82.119 86.6309 81.738 86.4146 81.3252 86.2833C80.8487 86.1306 80.3508 86.0561 79.8506 86.0629H79.0582C78.0981 87.1519 77.136 88.242 76.1719 89.3333V96.4376H77.7995V92.4202H79.6691C80.1615 92.4235 80.6516 92.3537 81.1236 92.2129C81.5535 92.0859 81.9559 91.879 82.3099 91.6029C82.6499 91.3346 82.9239 90.9914 83.1106 90.5997C83.3143 90.1649 83.4154 89.6887 83.406 89.2082C83.4127 88.7622 83.3275 88.3197 83.1557 87.9084ZM81.1947 90.4699C80.8341 90.7796 80.3414 90.9345 79.7166 90.9345H77.8054V87.5474H79.7166C80.3319 87.5474 80.8226 87.6888 81.1888 87.9715C81.555 88.2543 81.7381 88.6772 81.7381 89.2404C81.7467 89.4733 81.7022 89.7052 81.6081 89.9183C81.5139 90.1313 81.3725 90.32 81.1947 90.4699Z" fill="#213469"/>
<path d="M91.124 91.1731C90.7492 92.0659 90.0378 92.7735 89.1452 93.1413C88.1861 93.5328 87.1131 93.5354 86.1521 93.1484C85.7124 92.9686 85.3124 92.7033 84.9751 92.3678C84.6378 92.0323 84.3697 91.6332 84.1864 91.1934C83.9968 90.741 83.9015 90.2545 83.9064 89.7637C83.9033 89.2694 84.0006 88.7797 84.1923 88.3245C84.3762 87.8844 84.6433 87.4842 84.9789 87.1462C85.3195 86.8063 85.7224 86.5357 86.1652 86.3492C86.64 86.15 87.1502 86.0499 87.6647 86.0549C88.179 86.0497 88.6893 86.1477 89.1654 86.3432C89.6086 86.5257 90.0117 86.7941 90.3517 87.1331C90.6856 87.4683 90.9504 87.8662 91.1311 88.3042C91.3188 88.7572 91.414 89.2433 91.4111 89.7339C91.4152 90.2284 91.3175 90.7184 91.124 91.1731ZM89.6304 88.8844C89.5293 88.6156 89.3788 88.3683 89.1867 88.1553C88.9972 87.9457 88.7671 87.777 88.5105 87.6597C88.1099 87.4757 87.6615 87.4239 87.2298 87.5117C86.798 87.5994 86.405 87.8222 86.1071 88.1482C85.9196 88.3557 85.7752 88.5987 85.6823 88.863C85.5845 89.1448 85.5356 89.4414 85.5376 89.7399C85.5356 90.0438 85.5895 90.3455 85.6966 90.6298C85.795 90.9 85.9454 91.1482 86.1391 91.3602C86.3304 91.566 86.5601 91.732 86.8153 91.8486C87.0835 91.9707 87.375 92.0325 87.6694 92.0297C87.9729 92.0344 88.2737 91.9726 88.5509 91.8486C88.8047 91.7333 89.0324 91.5671 89.2199 91.3602C89.4066 91.1522 89.5506 90.9093 89.6435 90.6453C89.7422 90.3637 89.7916 90.067 89.7894 89.7685C89.7911 89.4665 89.7372 89.1668 89.6304 88.8844Z" fill="#213469"/>
<path d="M99.1738 91.0544L100.613 86.209H102.226L99.92 93.3312H98.481L96.9068 88.4977L95.3207 93.3312H93.8817L91.6016 86.209H93.2553L94.6682 91.0544L96.227 86.1816H97.6008L99.1738 91.0544Z" fill="#213469"/>
<path d="M104.707 91.6482C105.081 91.9599 105.555 92.1242 106.041 92.1105C106.399 92.1193 106.754 92.046 107.08 91.896C107.401 91.7343 107.694 91.5219 107.947 91.267L108.896 92.1105C108.562 92.5091 108.152 92.8368 107.69 93.0743C107.168 93.3258 106.594 93.4484 106.016 93.4317C105.529 93.4362 105.045 93.3452 104.592 93.1637C104.161 92.9937 103.768 92.737 103.439 92.4092C103.11 92.0814 102.851 91.6894 102.679 91.2574C102.487 90.7791 102.392 90.2672 102.399 89.7515C102.395 89.2634 102.481 88.7787 102.653 88.3218C102.813 87.8893 103.055 87.4918 103.364 87.1507C103.671 86.8156 104.04 86.5447 104.451 86.3537C104.886 86.1541 105.359 86.0537 105.837 86.0594C106.345 86.0483 106.849 86.1534 107.31 86.3668C107.719 86.5626 108.079 86.8475 108.364 87.2007C108.65 87.5624 108.865 87.9762 108.996 88.4195C109.14 88.8925 109.212 89.3845 109.209 89.879C109.209 89.9505 109.209 90.022 109.204 90.0922C109.198 90.1625 109.192 90.24 109.183 90.3198H104.011C104.111 90.898 104.343 91.3408 104.707 91.6482ZM107.614 89.2452C107.589 88.9954 107.531 88.7501 107.441 88.516C107.36 88.2992 107.239 88.0995 107.085 87.9275C106.932 87.7613 106.749 87.6269 106.545 87.5319C106.321 87.4312 106.078 87.3811 105.833 87.3854C105.603 87.3787 105.374 87.4212 105.162 87.5099C104.949 87.5986 104.758 87.7316 104.601 87.9001C104.263 88.2722 104.055 88.7442 104.007 89.2452H107.614Z" fill="#213469"/>
<path d="M111.931 93.2814H110.305V86.2081H111.931V87.801C112.131 87.2967 112.458 86.8536 112.88 86.5155C113.289 86.1938 113.803 86.0464 114.422 86.0734V87.7879H114.329C113.996 87.7831 113.666 87.8421 113.356 87.9618C113.066 88.0751 112.806 88.2536 112.595 88.4836C112.371 88.7371 112.203 89.0361 112.103 89.3605C111.981 89.7569 111.922 90.1703 111.93 90.5852L111.931 93.2814Z" fill="#213469"/>
<path d="M38.9044 85.556H33.6264V87.9662H38.3053V89.4518H33.6264V91.9537H38.9649V93.4394H32V84.0703H38.9044V85.556Z" fill="#213469"/>
<path d="M40.2969 85.5752V93.4384H41.9245V83.7285C41.3804 84.3457 40.8378 84.9612 40.2969 85.5752Z" fill="#213469"/>
<path d="M45.4172 91.6522C45.7909 91.9631 46.2643 92.127 46.7494 92.1133C47.1078 92.1224 47.4636 92.0495 47.7898 91.9C48.1097 91.7375 48.402 91.5252 48.6558 91.2709L49.6049 92.1133C49.2709 92.5123 48.8606 92.84 48.3984 93.0771C47.8774 93.3293 47.3037 93.4519 46.7257 93.4345C46.2383 93.4388 45.7548 93.3478 45.3021 93.1664C44.8709 92.9961 44.4789 92.7392 44.1501 92.4115C43.8213 92.0837 43.5625 91.6919 43.3898 91.2602C43.1975 90.782 43.1023 90.27 43.1098 89.7543C43.1068 89.2663 43.1924 88.7818 43.3625 88.3246C43.5229 87.8921 43.7646 87.4945 44.0743 87.1535C44.3808 86.819 44.7501 86.5485 45.1609 86.3576C45.5958 86.1576 46.0695 86.0571 46.5477 86.0634C47.0561 86.0518 47.5605 86.1569 48.0223 86.3707C48.4314 86.5657 48.7914 86.8508 49.0758 87.2047C49.3627 87.5661 49.5777 87.9794 49.7093 88.4223C49.8529 88.8953 49.9249 89.3873 49.9228 89.8818C49.9228 89.9533 49.9204 90.0247 49.9157 90.0962C49.9157 90.1677 49.905 90.2428 49.8955 90.3238H44.7232C44.8216 90.898 45.0518 91.3436 45.4172 91.6522ZM48.3225 89.2491C48.2985 88.9977 48.2403 88.7507 48.1493 88.5152C48.0677 88.2987 47.9471 88.0992 47.7934 87.9267C47.6408 87.7611 47.4574 87.6271 47.2536 87.5323C47.0301 87.4309 46.787 87.3805 46.5418 87.3846C46.3115 87.3778 46.0823 87.4203 45.8696 87.5092C45.6569 87.5981 45.4655 87.7315 45.308 87.9005C44.9707 88.2727 44.7626 88.7446 44.7149 89.2456L48.3225 89.2491Z" fill="#213469"/>
<path d="M55.9707 93.0704C55.5262 93.3158 54.9619 93.4386 54.2778 93.4386C53.7788 93.4434 53.2842 93.3453 52.8246 93.1502C52.3907 92.9658 51.9973 92.6974 51.6667 92.3604C51.3323 92.0185 51.0681 91.6138 50.8894 91.1694C50.7107 90.7249 50.6209 90.2495 50.6251 89.7703C50.6192 88.7964 50.9941 87.8591 51.6691 87.1599C52.01 86.8085 52.4183 86.5301 52.8693 86.3415C53.3203 86.1529 53.8047 86.058 54.2932 86.0627C54.9599 86.0627 55.5136 86.1739 55.9541 86.3962C56.3897 86.6166 56.7807 86.9164 57.1072 87.2803L56.1071 88.3644C55.873 88.1171 55.6064 87.9031 55.3146 87.7282C54.9983 87.5548 54.6416 87.4696 54.2814 87.4816C54.0004 87.4786 53.7224 87.5402 53.4687 87.6615C53.2242 87.7786 53.0061 87.9448 52.8281 88.15C52.6468 88.3612 52.5046 88.6033 52.4082 88.8648C52.3045 89.1453 52.2527 89.4425 52.2551 89.7417C52.2526 90.0475 52.3044 90.3513 52.4082 90.6388C52.5045 90.9054 52.6516 91.1506 52.8412 91.3608C53.0287 91.5667 53.2554 91.7328 53.5079 91.8492C53.803 91.9791 54.1235 92.0405 54.4455 92.029C54.7676 92.0174 55.0829 91.9332 55.368 91.7825C55.6686 91.6085 55.9443 91.3945 56.1878 91.1463L57.1606 92.1102C56.8225 92.4972 56.4198 92.8222 55.9707 93.0704Z" fill="#213469"/>
<path d="M61.9401 87.629V86.2518H60.042V84.3086H60.0159C59.482 84.9114 58.949 85.5151 58.4167 86.1195V86.2518H57.5234V87.6314H58.4167V91.3628C58.4082 91.6973 58.4576 92.0306 58.5627 92.3481C58.65 92.5923 58.7959 92.8112 58.9873 92.9855C59.1762 93.149 59.3992 93.2679 59.6398 93.3334C59.9052 93.4073 60.1795 93.4438 60.4548 93.4418C60.7246 93.4451 60.9937 93.4139 61.2556 93.3489C61.4831 93.2864 61.7022 93.1964 61.9081 93.0808V91.7536C61.5983 91.9105 61.2561 91.9922 60.9092 91.9919C60.6776 92.0068 60.449 91.9326 60.2698 91.7846C60.1167 91.6464 60.042 91.4188 60.042 91.1055V87.629H61.9401Z" fill="#213469"/>
<path d="M64.6499 93.4408H63.0234V86.3723H64.6499V87.9651C64.8493 87.4609 65.1764 87.0178 65.5989 86.6796C66.007 86.3619 66.5211 86.215 67.1411 86.2388V87.952H67.0486C66.7159 87.948 66.3855 88.007 66.0746 88.126C65.7851 88.2393 65.5254 88.4178 65.3154 88.6478C65.0897 88.9009 64.9214 89.2 64.8219 89.5247C64.7002 89.9212 64.6417 90.3346 64.6487 90.7494L64.6499 93.4408Z" fill="#213469"/>
<path d="M72.8167 86.9002C72.3106 86.3775 71.5327 86.1162 70.4832 86.1162C69.9853 86.107 69.4882 86.1615 69.0039 86.2783C68.5921 86.3857 68.1904 86.5288 67.8033 86.706L68.2446 88.0058C68.5526 87.8748 68.8699 87.7669 69.1937 87.6829C69.5433 87.599 69.902 87.559 70.2614 87.5638C70.8213 87.5638 71.2504 87.6932 71.5485 87.9522C71.8467 88.2111 71.9954 88.586 71.9946 89.0768V89.252C71.3681 89.0407 70.7098 88.9403 70.049 88.9553C69.6642 88.9526 69.2806 88.9999 68.9078 89.0959C68.5824 89.1793 68.2751 89.3223 68.0014 89.5177C67.75 89.7052 67.5466 89.9503 67.4083 90.2325C67.2609 90.5458 67.1882 90.8892 67.1959 91.2356V91.2559C67.1878 91.5829 67.2586 91.9071 67.4024 92.2007C67.5333 92.465 67.7189 92.6982 67.9469 92.8845C68.1826 93.0725 68.452 93.2132 68.7405 93.2991C69.052 93.3939 69.376 93.4413 69.7014 93.4397C70.1717 93.454 70.6383 93.353 71.061 93.1454C71.4104 92.9669 71.7219 92.7217 71.978 92.4235C72.4992 92.8881 73.0215 93.3527 73.5451 93.8174C73.5562 92.2463 73.5669 90.6737 73.5771 89.0995C73.5763 88.1543 73.3229 87.4212 72.8167 86.9002ZM72.016 90.7353C72.0193 90.947 71.9713 91.1564 71.876 91.3453C71.7816 91.5288 71.6479 91.6892 71.4845 91.8147C71.3048 91.9473 71.1043 92.0488 70.8913 92.1149C70.6514 92.1879 70.4017 92.2237 70.1511 92.2209C69.8095 92.2318 69.4726 92.1392 69.1842 91.9552C69.0578 91.8701 68.9554 91.7536 68.8868 91.6172C68.8183 91.4807 68.7859 91.3288 68.7927 91.1761V91.1511C68.7855 90.9856 68.821 90.821 68.8956 90.6732C68.9702 90.5255 69.0814 90.3995 69.2186 90.3076C69.5033 90.1106 69.8988 90.0125 70.4049 90.0133C70.7022 90.0118 70.9989 90.0385 71.2911 90.0931C71.5388 90.1376 71.7818 90.205 72.0171 90.2944L72.016 90.7353Z" fill="#213469"/>
<path d="M45.5834 99.631H41.1021V101.673H45.067V102.936H41.1021V105.059H45.6363V106.319H39.7266V98.3711H45.5834V99.631Z" fill="#213469"/>
<path d="M48.528 106.321H47.1484V100.326L48.528 99.748V101.266C48.6242 101.122 48.7316 100.985 48.8493 100.858C48.9698 100.728 49.1065 100.615 49.2559 100.52C49.4141 100.419 49.585 100.34 49.7642 100.285C49.9675 100.225 50.1786 100.196 50.3905 100.198C51.0682 100.198 51.5905 100.407 51.9571 100.823C52.3238 101.24 52.5081 101.8 52.5102 102.504V106.319H51.1286V102.922C51.1286 102.455 51.0178 102.093 50.7971 101.841C50.5765 101.589 50.2654 101.461 49.8618 101.461C49.6828 101.454 49.5044 101.486 49.3382 101.553C49.1721 101.621 49.0221 101.722 48.8981 101.852C48.6514 102.112 48.528 102.476 48.528 102.945V106.321Z" fill="#213469"/>
<path d="M59.1879 107.421C58.6308 107.913 57.8395 108.159 56.814 108.159C55.8756 108.174 54.9515 107.927 54.1454 107.444L54.6537 106.411C54.9652 106.606 55.2991 106.762 55.648 106.877C56.0135 106.993 56.395 107.051 56.7785 107.047C57.3884 107.047 57.8561 106.891 58.1814 106.58C58.5067 106.268 58.6687 105.808 58.6674 105.199V104.731C58.4286 105.05 58.1333 105.322 57.7961 105.534C57.4222 105.75 56.9951 105.856 56.5639 105.84C56.2164 105.841 55.8717 105.778 55.5473 105.652C55.2252 105.529 54.931 105.342 54.6822 105.102C54.4234 104.85 54.2177 104.549 54.0773 104.216C53.7763 103.45 53.7763 102.598 54.0773 101.832C54.2182 101.499 54.4238 101.198 54.6822 100.946C54.9334 100.705 55.2295 100.516 55.5534 100.39C55.877 100.262 56.222 100.196 56.57 100.196C57.075 100.196 57.4915 100.298 57.8195 100.503C58.1382 100.697 58.423 100.943 58.6623 101.231V100.324L60.0297 99.5898V105.093C60.0263 106.153 59.7457 106.929 59.1879 107.421ZM58.5382 102.343C58.4491 102.144 58.32 101.966 58.159 101.82C57.9959 101.673 57.806 101.56 57.5999 101.487C57.3842 101.408 57.1564 101.368 56.9269 101.368C56.6992 101.366 56.4731 101.406 56.26 101.487C56.0615 101.562 55.8793 101.675 55.7232 101.82C55.567 101.965 55.4436 102.141 55.3613 102.338C55.272 102.553 55.2277 102.783 55.2311 103.015C55.2278 103.248 55.2739 103.478 55.3664 103.691C55.4525 103.888 55.5754 104.066 55.7283 104.216C55.8819 104.365 56.0647 104.48 56.2651 104.554C56.4765 104.634 56.7009 104.674 56.9269 104.672C57.1564 104.673 57.3843 104.633 57.5999 104.554C57.807 104.48 57.9972 104.365 58.159 104.216C58.3175 104.069 58.4462 103.893 58.5382 103.697C58.6345 103.487 58.6828 103.258 58.6796 103.026C58.682 102.791 58.6338 102.558 58.5382 102.343Z" fill="#213469"/>
<path d="M61.7422 99.4035L63.2234 98.0977V99.4035H61.7422ZM61.7981 106.319V100.323H63.1777V106.319H61.7981Z" fill="#213469"/>
<path d="M66.3405 106.319H64.9609V100.689L66.3405 99.9551V101.268C66.437 101.124 66.5444 100.987 66.6618 100.86C66.9116 100.592 67.2271 100.394 67.5767 100.287C67.78 100.227 67.9911 100.198 68.203 100.2C68.8807 100.2 69.403 100.408 69.7696 100.825C70.1363 101.242 70.3206 101.802 70.3227 102.505V106.321H68.9431V102.92C68.9431 102.452 68.8333 102.091 68.6127 101.839C68.3921 101.587 68.08 101.459 67.6764 101.459C67.4974 101.452 67.319 101.484 67.1529 101.551C66.9868 101.618 66.8368 101.72 66.7126 101.85C66.4659 102.11 66.3425 102.474 66.3425 102.942L66.3405 106.319Z" fill="#213469"/>
<path d="M73.5895 104.938C73.9065 105.202 74.3084 105.341 74.72 105.329C75.024 105.337 75.3259 105.275 75.6024 105.148C75.874 105.01 76.1221 104.83 76.3374 104.615L77.1395 105.329C76.8562 105.667 76.5085 105.945 76.1168 106.146C75.6736 106.361 75.1855 106.466 74.6935 106.453C74.2815 106.456 73.8727 106.379 73.4898 106.226C73.1231 106.082 72.7896 105.864 72.5098 105.586C72.2301 105.307 72.01 104.975 71.8632 104.608C71.7001 104.202 71.6192 103.768 71.6253 103.33C71.6222 102.916 71.6949 102.504 71.8398 102.115C71.9779 101.748 72.185 101.411 72.4498 101.122C72.7099 100.838 73.0233 100.608 73.3719 100.446C73.7404 100.276 74.1418 100.191 74.5471 100.196C74.9779 100.187 75.4052 100.276 75.7966 100.457C76.1428 100.623 76.448 100.863 76.6902 101.162C76.934 101.468 77.1163 101.819 77.227 102.195C77.349 102.596 77.41 103.013 77.4079 103.432C77.4079 103.494 77.4079 103.554 77.4079 103.614C77.4079 103.674 77.3978 103.739 77.3907 103.807H73.0039C73.0852 104.3 73.2804 104.677 73.5895 104.938ZM76.0548 102.896C76.0334 102.685 75.9838 102.476 75.9074 102.278C75.8376 102.094 75.7342 101.924 75.6024 101.778C75.4728 101.638 75.317 101.524 75.1439 101.444C74.9525 101.356 74.744 101.313 74.5339 101.318C74.3387 101.312 74.1446 101.348 73.9644 101.424C73.7842 101.499 73.6221 101.613 73.4888 101.756C73.2006 102.071 73.0221 102.471 72.9805 102.896H76.0548Z" fill="#213469"/>
<path d="M80.4254 104.938C80.7428 105.202 81.145 105.341 81.5569 105.329C81.8607 105.337 82.1621 105.275 82.4383 105.148C82.7102 105.011 82.9584 104.831 83.1734 104.615L83.9765 105.329C83.6928 105.667 83.3448 105.945 82.9527 106.146C82.5096 106.361 82.0215 106.466 81.5295 106.453C81.1174 106.456 80.7086 106.379 80.3258 106.226C79.959 106.082 79.6255 105.864 79.3458 105.586C79.066 105.307 78.846 104.975 78.6991 104.608C78.536 104.202 78.4552 103.768 78.4613 103.33C78.4584 102.916 78.5315 102.504 78.6768 102.115C78.8141 101.748 79.0212 101.41 79.2868 101.122C79.5463 100.838 79.8594 100.608 80.2078 100.446C80.5767 100.276 80.9784 100.191 81.3841 100.196C81.8149 100.187 82.2421 100.276 82.6335 100.457C82.9796 100.622 83.2846 100.863 83.5261 101.162C83.77 101.468 83.9523 101.819 84.0629 102.195C84.1849 102.596 84.2459 103.013 84.2439 103.432C84.2439 103.494 84.2439 103.554 84.2439 103.614C84.2439 103.674 84.2347 103.739 84.2266 103.807H79.8398C79.9218 104.3 80.117 104.677 80.4254 104.938ZM82.8907 102.896C82.8698 102.684 82.8202 102.476 82.7433 102.278C82.6735 102.094 82.5701 101.924 82.4383 101.778C82.3091 101.638 82.1537 101.524 81.9808 101.444C81.7894 101.357 81.581 101.314 81.3709 101.318C81.1755 101.312 80.9812 101.348 80.8008 101.424C80.6205 101.499 80.4582 101.613 80.3247 101.756C80.0365 102.071 79.858 102.471 79.8164 102.896H82.8907Z" fill="#213469"/>
<path d="M87.0124 106.318H85.6328V100.323H87.0124V101.674C87.1803 101.246 87.4573 100.871 87.8155 100.585C88.1612 100.312 88.5994 100.186 89.127 100.21V101.663H89.0477C88.7657 101.659 88.4855 101.709 88.2222 101.811C87.9766 101.907 87.7561 102.058 87.5776 102.253C87.3865 102.468 87.244 102.722 87.1598 102.997C87.0559 103.333 87.0061 103.684 87.0124 104.036V106.318Z" fill="#213469"/>
<path d="M90.3281 99.4035L91.8094 98.0977V99.4035H90.3281ZM90.3851 106.319V100.323H91.7646V106.319H90.3851Z" fill="#213469"/>
<path d="M94.9108 106.321H93.5312V101.104L94.9108 100.031V101.266C95.007 101.121 95.1144 100.985 95.2321 100.857C95.3526 100.728 95.4893 100.614 95.6387 100.519C95.7969 100.418 95.9679 100.339 96.1471 100.284C96.3503 100.224 96.5614 100.195 96.7733 100.198C97.4511 100.198 97.9733 100.406 98.3399 100.823C98.7066 101.239 98.891 101.799 98.893 102.503V106.318H97.5134V102.922C97.5134 102.454 97.4026 102.093 97.182 101.84C96.9614 101.588 96.6503 101.461 96.2467 101.461C96.0676 101.454 95.8892 101.485 95.7231 101.552C95.557 101.62 95.407 101.722 95.2829 101.852C95.0355 102.112 94.9122 102.476 94.9129 102.944L94.9108 106.321Z" fill="#213469"/>
<path d="M105.563 107.421C105.006 107.913 104.214 108.159 103.189 108.159C102.251 108.175 101.326 107.927 100.52 107.445L101.029 106.411C101.34 106.606 101.674 106.763 102.023 106.877C102.388 106.993 102.77 107.051 103.153 107.048C103.763 107.048 104.231 106.892 104.556 106.58C104.882 106.268 105.044 105.808 105.042 105.2V104.731C104.804 105.05 104.508 105.323 104.171 105.534C103.797 105.751 103.37 105.857 102.939 105.841C102.591 105.842 102.247 105.778 101.922 105.653C101.6 105.529 101.306 105.342 101.057 105.103C100.798 104.851 100.593 104.55 100.452 104.216C100.151 103.45 100.151 102.598 100.452 101.832C100.593 101.5 100.799 101.198 101.057 100.946C101.308 100.705 101.604 100.517 101.928 100.391C102.252 100.262 102.597 100.196 102.945 100.197C103.45 100.197 103.866 100.299 104.194 100.503C104.513 100.698 104.798 100.944 105.037 101.231V100.324L106.405 99.3555V105.093C106.401 106.153 106.121 106.929 105.563 107.421ZM104.913 102.344C104.824 102.145 104.695 101.967 104.534 101.82C104.371 101.674 104.181 101.561 103.975 101.487C103.759 101.408 103.531 101.368 103.302 101.369C103.074 101.367 102.848 101.407 102.635 101.487C102.436 101.563 102.254 101.676 102.098 101.82C101.942 101.965 101.819 102.142 101.736 102.339C101.647 102.553 101.603 102.783 101.606 103.016C101.603 103.248 101.649 103.479 101.741 103.692C101.828 103.888 101.95 104.066 102.103 104.216C102.257 104.365 102.44 104.48 102.64 104.554C102.852 104.634 103.076 104.674 103.302 104.673C103.531 104.674 103.759 104.634 103.975 104.554C104.182 104.481 104.372 104.366 104.534 104.216C104.692 104.07 104.821 103.893 104.913 103.698C105.01 103.487 105.058 103.258 105.055 103.027C105.057 102.792 105.009 102.559 104.913 102.344Z" fill="#213469"/>
</svg>
